%FSLAX25Y25*%
%MOIN*%
G70*
G01*
G75*
G04 Layer_Physical_Order=3*
G04 Layer_Color=16440176*
%ADD10R,0.01969X0.01969*%
%ADD11C,0.03937*%
%ADD12R,0.02953X0.01969*%
%ADD13R,0.03740X0.06102*%
%ADD14R,0.01575X0.01575*%
%ADD15R,0.02362X0.03937*%
%ADD16R,0.03937X0.02559*%
%ADD17R,0.03937X0.02362*%
%ADD18R,0.01969X0.02953*%
%ADD19R,0.00984X0.02756*%
%ADD20R,0.09449X0.06496*%
%ADD21C,0.01969*%
%ADD22R,0.06102X0.03740*%
%ADD23R,0.05512X0.05512*%
%ADD24R,0.01575X0.03937*%
%ADD25R,0.01575X0.03347*%
%ADD26R,0.01181X0.01969*%
%ADD27R,0.01772X0.03740*%
%ADD28R,0.06496X0.09449*%
%ADD29R,0.02756X0.00984*%
%ADD30R,0.03150X0.03150*%
%ADD31R,0.07874X0.02362*%
%ADD32R,0.01969X0.02362*%
%ADD33R,0.28150X0.28150*%
%ADD34R,0.07874X0.09449*%
%ADD35R,0.03347X0.01575*%
%ADD36R,0.01575X0.05512*%
%ADD37R,0.01575X0.01575*%
%ADD38R,0.03740X0.01772*%
%ADD39R,0.03937X0.02756*%
%ADD40R,0.02756X0.03937*%
%ADD41C,0.00984*%
%ADD42R,0.01969X0.01181*%
%ADD43R,0.01575X0.01378*%
%ADD44R,0.01378X0.01575*%
%ADD45R,0.01181X0.06102*%
%ADD46C,0.00984*%
%ADD47C,0.00787*%
%ADD48C,0.01772*%
%ADD49C,0.00591*%
%ADD50C,0.01181*%
%ADD51C,0.01969*%
%ADD52C,0.01575*%
%ADD53C,0.01000*%
%ADD54C,0.00098*%
%ADD55C,0.00197*%
%ADD56C,0.00799*%
%ADD57C,0.06000*%
%ADD58C,0.04000*%
%ADD59C,0.15799*%
%ADD60C,0.01772*%
%ADD61C,0.01575*%
%ADD62C,0.00984*%
D46*
X39858Y-128547D02*
X250904D01*
X170758Y-9350D02*
X174508Y-13100D01*
X150197Y-9350D02*
X170758D01*
X149606Y-9941D02*
X150197Y-9350D01*
X38613Y-11713D02*
X152953D01*
X36811Y-9911D02*
X38613Y-11713D01*
X36811Y-9911D02*
Y30118D01*
X113653Y-123547D02*
X147343D01*
X110921Y-126279D02*
X113653Y-123547D01*
X93209Y-126279D02*
X110921D01*
X100787Y-31398D02*
X157382D01*
X92913Y-39272D02*
X100787Y-31398D01*
X157382D02*
X164532Y-38547D01*
X165354Y-43547D02*
X255904D01*
X107929D02*
X158071D01*
X163724Y-45177D02*
X165354Y-43547D01*
X159701Y-45177D02*
X163724D01*
X158071Y-43547D02*
X159701Y-45177D01*
X164532Y-38547D02*
X250904D01*
X38673Y-9146D02*
Y31051D01*
Y-9146D02*
X39469Y-9941D01*
X149606D01*
X32087Y36024D02*
X33700D01*
X38673Y31051D01*
X90354Y-123425D02*
X93209Y-126279D01*
X255904Y-43547D02*
X260904Y-38547D01*
X255904Y-123547D02*
X260904Y-118547D01*
X33465Y33465D02*
X36811Y30118D01*
X34252Y-149606D02*
X38386Y-145472D01*
X30906Y-149606D02*
X36417Y-144095D01*
X147343Y-123547D02*
X255904D01*
X91437Y-39272D02*
X92913D01*
X84153Y-54823D02*
X86319Y-52658D01*
X98819D01*
X107929Y-43547D01*
X36417Y-144095D02*
Y-127756D01*
X40748Y-123425D01*
X90354D01*
X38386Y-145472D02*
Y-130020D01*
X39858Y-128547D01*
X255852Y-23600D02*
X260904Y-18547D01*
X152953Y-11713D02*
X165313D01*
X177200Y-23600D01*
X255852D01*
X174508Y-16108D02*
Y-13100D01*
Y-16108D02*
X176947Y-18547D01*
X250904D01*
D47*
X115450Y-65650D02*
X147933D01*
X173622Y-73819D02*
X178894Y-68547D01*
X41600Y-61700D02*
X77000D01*
X38386Y-58486D02*
X41600Y-61700D01*
X38386Y-58486D02*
Y-54626D01*
X78134Y-82563D02*
Y-62834D01*
X77000Y-61700D02*
X78134Y-62834D01*
X38386Y-64384D02*
X41240Y-67239D01*
X38386Y-64384D02*
Y-61221D01*
X41240Y-84153D02*
Y-67239D01*
X35925Y-88090D02*
X41339Y-93504D01*
X79522Y-86122D02*
X86811D01*
X78735Y-85335D02*
X79522Y-86122D01*
X42421Y-85335D02*
X78735D01*
X86864Y-114764D02*
X105217D01*
X84600Y-112500D02*
X86864Y-114764D01*
X36909Y-112500D02*
X84600D01*
X114500Y-66600D02*
X115450Y-65650D01*
X114500Y-69100D02*
Y-66600D01*
X113423Y-70177D02*
X114500Y-69100D01*
X111221Y-70177D02*
X113423D01*
X112705Y-104535D02*
X167315D01*
X111516Y-103347D02*
X112705Y-104535D01*
X109947Y-109547D02*
X171653D01*
X109455Y-109055D02*
X109947Y-109547D01*
X98721Y-109055D02*
X109455D01*
X167618Y-100689D02*
X179760Y-88547D01*
X250904D01*
X148721Y-100689D02*
X167618D01*
X175553Y-108547D02*
X250904D01*
X172584Y-111516D02*
X175553Y-108547D01*
X113878Y-111516D02*
X172584D01*
X177653Y-103547D02*
X255904D01*
X171653Y-109547D02*
X177653Y-103547D01*
X179953Y-98547D02*
X250904D01*
X171020Y-107480D02*
X179953Y-98547D01*
X96358Y-107480D02*
X171020D01*
X178654Y-63046D02*
Y-60716D01*
X173984Y-67716D02*
X178654Y-63046D01*
X158465Y-67716D02*
X173984D01*
X180653Y-63547D02*
X255904D01*
X173531Y-70669D02*
X180653Y-63547D01*
X153839Y-70669D02*
X173531D01*
X148719Y-51575D02*
X172933D01*
X114469D02*
X144390D01*
X147924Y-52370D02*
X148719Y-51575D01*
X145185Y-52370D02*
X147924D01*
X144390Y-51575D02*
X145185Y-52370D01*
X178894Y-68547D02*
X250904D01*
X169006Y-73819D02*
X173622D01*
X41339Y-93504D02*
X81299D01*
X42028Y-87598D02*
X84941D01*
X39567Y-85138D02*
X42028Y-87598D01*
X159449Y-62795D02*
X173130D01*
X155610Y-58957D02*
X159449Y-62795D01*
X176378Y-62894D02*
Y-55413D01*
X178654Y-60716D02*
X180823Y-58547D01*
X250904D01*
X153150Y-69980D02*
X153839Y-70669D01*
X147638Y-69980D02*
X153150D01*
X145866Y-71752D02*
X147638Y-69980D01*
X149016Y-71949D02*
X150394D01*
X147638Y-73327D02*
X149016Y-71949D01*
X112106Y-71752D02*
X145866D01*
X113091Y-73327D02*
X147638D01*
X156309Y-86516D02*
X169006Y-73819D01*
X111319Y-86516D02*
X156309D01*
X111335Y-96638D02*
X160449D01*
X113993Y-94898D02*
X158744D01*
X113785Y-94690D02*
X113993Y-94898D01*
X158744D02*
X175094Y-78547D01*
X160449Y-96638D02*
X161811Y-95276D01*
X166142D01*
X91732Y-108219D02*
X93947Y-106004D01*
X167315Y-104535D02*
X170374Y-101476D01*
X93701Y-110138D02*
X96358Y-107480D01*
X159547Y-88189D02*
X171850Y-75886D01*
X114173Y-88189D02*
X159547D01*
X150197Y-83858D02*
Y-82776D01*
X144685Y-77264D02*
X150197Y-82776D01*
X114961Y-77264D02*
X144685D01*
X114953Y-77272D02*
X114961Y-77264D01*
X113395Y-77272D02*
X114953D01*
X149409Y-92126D02*
X152165D01*
X149016Y-92520D02*
X149409Y-92126D01*
X108169Y-92520D02*
X149016D01*
X154134Y-84547D02*
X155610D01*
X144980Y-75394D02*
X154134Y-84547D01*
X95571Y-77264D02*
X104134D01*
X111221Y-70177D01*
X103642Y-80216D02*
X112106Y-71752D01*
X98032Y-80216D02*
X103642D01*
X92134Y-82882D02*
X103535D01*
X91732Y-82480D02*
X92134Y-82882D01*
X103535D02*
X113091Y-73327D01*
X91142Y-84744D02*
X107579D01*
X110531Y-81791D01*
Y-81693D01*
X40650Y-89567D02*
X82776D01*
X37894Y-86811D02*
X40650Y-89567D01*
X37894Y-86811D02*
Y-72441D01*
X84941Y-87598D02*
X89862Y-92520D01*
X111909Y-90453D02*
X114173Y-88189D01*
X110236Y-90453D02*
X111909D01*
X110236Y-87598D02*
X111319Y-86516D01*
X91043Y-87598D02*
X110236D01*
X91142Y-90453D02*
X110236D01*
X89862Y-92520D02*
X108169D01*
X112500Y-68110D02*
Y-65748D01*
X113878Y-57185D02*
X156102D01*
X113388Y-77264D02*
X113395Y-77272D01*
X112894Y-77264D02*
X113388D01*
X110531Y-79626D02*
X112894Y-77264D01*
X110531Y-81693D02*
Y-79626D01*
X114173Y-75394D02*
X144980D01*
X112894Y-55512D02*
X157480D01*
X107480Y-100492D02*
X111335Y-96638D01*
X39469Y-100492D02*
X107480D01*
X29232Y-90256D02*
X39469Y-100492D01*
X112500Y-65748D02*
X114665Y-63583D01*
X170866Y-56299D02*
X172933D01*
X176378Y-55413D02*
X178244Y-53547D01*
X255904D01*
X178051Y-75886D02*
X180390Y-73547D01*
X255904D01*
X178795Y-93547D02*
X255904D01*
X250160Y-119291D02*
X250904Y-118547D01*
X99803Y-119291D02*
X250160D01*
X98622Y-120472D02*
X99803Y-119291D01*
X255904Y-53547D02*
X260904Y-48547D01*
X255904Y-63547D02*
X260904Y-58547D01*
X255904Y-73547D02*
X260904Y-68547D01*
X255904Y-93547D02*
X260904Y-88547D01*
X255904Y-103547D02*
X260904Y-98547D01*
X99508Y-66535D02*
X114469Y-51575D01*
X85039Y-66535D02*
X99508D01*
X87697Y-68602D02*
X99803D01*
X88386Y-70768D02*
X100295D01*
X81398Y-81102D02*
Y-70177D01*
X85039Y-66535D01*
X83858Y-70965D02*
X85335D01*
X87697Y-68602D01*
X88189Y-73425D02*
X89764Y-75000D01*
X83858Y-73425D02*
X88189D01*
X94587Y-123721D02*
X104724D01*
X90945Y-120079D02*
X94587Y-123721D01*
X84350Y-120079D02*
X90945D01*
X95571Y-120472D02*
X98622D01*
X40748Y-97441D02*
X79331D01*
X175094Y-78547D02*
X250904D01*
X159449Y-60532D02*
X166634D01*
X170866Y-56299D01*
X147933Y-65650D02*
X156398D01*
X114665Y-63583D02*
X156988D01*
X171850Y-75886D02*
X178051D01*
X99803Y-68602D02*
X112894Y-55512D01*
X157480D02*
X159744Y-57776D01*
X100295Y-70768D02*
X113878Y-57185D01*
X156102D02*
X159449Y-60532D01*
X33366Y-67913D02*
X37894Y-72441D01*
X31299Y-54528D02*
X32677D01*
X33366Y-55216D01*
Y-67913D02*
Y-55216D01*
X29232Y-90256D02*
Y-52559D01*
X29823Y-51968D01*
X31299D01*
X27756Y-98917D02*
Y-50984D01*
X29528Y-49213D01*
X31299D01*
X86811Y-86122D02*
X91142Y-90453D01*
X88090Y-84646D02*
X91043Y-87598D01*
X99508Y-111516D02*
X101575D01*
X97933Y-113091D02*
X99508Y-111516D01*
X89370Y-113091D02*
X97933D01*
X89567Y-83169D02*
X91142Y-84744D01*
X41240Y-84153D02*
X42421Y-85335D01*
X27756Y-98917D02*
X37697Y-108858D01*
X85138D01*
X89370Y-113091D01*
X28346Y-103937D02*
X36909Y-112500D01*
X113976Y-100886D02*
X115157Y-102067D01*
X147343D01*
X148721Y-100689D01*
X158957Y-65551D02*
X173721D01*
X176378Y-62894D01*
X156398Y-65650D02*
X158465Y-67716D01*
X156988Y-63583D02*
X158957Y-65551D01*
X174213Y-98130D02*
X178795Y-93547D01*
X93947Y-106004D02*
X169882D01*
X174213Y-101673D01*
Y-98130D01*
X97638Y-110138D02*
X98721Y-109055D01*
X81595Y-62402D02*
Y-48917D01*
X79823Y-47146D02*
X81595Y-48917D01*
X34057Y-46557D02*
X37207D01*
X37795Y-47146D01*
X79823D01*
X30709Y-87402D02*
X40748Y-97441D01*
X30709Y-87402D02*
Y-60039D01*
X31299Y-59449D01*
Y-57087D01*
X35925Y-88090D02*
Y-73819D01*
X28445Y-43702D02*
Y-31988D01*
Y-43702D02*
X30413Y-45671D01*
X33860Y-49117D01*
Y-50297D02*
Y-49117D01*
X39567Y-85138D02*
Y-71457D01*
X34941Y-66831D02*
X39567Y-71457D01*
X34941Y-66831D02*
Y-51378D01*
X33860Y-50297D02*
X34941Y-51378D01*
X91831Y-72736D02*
X100492D01*
X114272Y-58957D01*
X155610D01*
X89764Y-75000D02*
X100689D01*
X114173Y-61516D01*
X154921D01*
X114370Y-79331D02*
X144193D01*
X147047Y-82185D01*
Y-82382D02*
Y-82185D01*
X80809Y-83169D02*
X89567D01*
X79520Y-81880D02*
X80809Y-83169D01*
X79520Y-64476D02*
X81595Y-62402D01*
X79520Y-81880D02*
Y-64476D01*
X78134Y-82563D02*
X80216Y-84646D01*
X88090D01*
X104724Y-123721D02*
X106245Y-122200D01*
X110800D01*
D48*
X177362Y-113547D02*
X255904D01*
X40650Y-16732D02*
X79035D01*
X113476Y-6685D02*
X114250Y-7458D01*
X39377Y-117323D02*
X111423D01*
X37400Y-119300D02*
X39377Y-117323D01*
X37400Y-122344D02*
Y-119300D01*
X34055Y-125689D02*
X37400Y-122344D01*
X176953Y-83547D02*
X255904D01*
X172900Y-87600D02*
X176953Y-83547D01*
X172900Y-91962D02*
Y-87600D01*
X166347Y-98516D02*
X172900Y-91962D01*
X177760Y-28547D02*
X250904D01*
X175886Y-26673D02*
X177760Y-28547D01*
X172736Y-26673D02*
X175886D01*
X41839Y-6685D02*
X113476D01*
X40846Y-7677D02*
X41839Y-6685D01*
X113976Y-47244D02*
X143898D01*
X114958Y-98516D02*
X166347D01*
X114958Y-98516D02*
X114958Y-98516D01*
X107573Y-103937D02*
X112995Y-98516D01*
X114958D01*
X99508Y-103937D02*
X107573D01*
X255904Y-83547D02*
X260904Y-78547D01*
X255904Y-113547D02*
X260904Y-108547D01*
X40551Y-26969D02*
Y-23031D01*
X42323Y-21260D01*
X79035D01*
X27559Y-145669D02*
X29331D01*
X26575Y32087D02*
Y37402D01*
X29409Y33977D02*
X34252Y29134D01*
X29409Y33977D02*
Y41948D01*
X29331Y-145669D02*
X31693D01*
X34055Y-143307D01*
X37795Y-103937D02*
X99508D01*
X25689Y-143799D02*
X27559Y-145669D01*
X25689Y31201D02*
X26575Y32087D01*
X25689Y-23031D02*
Y31201D01*
Y-143799D02*
Y-23031D01*
X111423Y-117323D02*
X112899Y-115847D01*
X145374D01*
X147673Y-113547D01*
X177362D01*
X40157Y-52756D02*
X78248D01*
X79134Y-53642D01*
X34055Y-143307D02*
Y-125689D01*
X34252Y-12598D02*
Y-10236D01*
Y29134D01*
D51*
X1280Y-21949D02*
X16732Y-6496D01*
X20276Y-144095D02*
Y-130576D01*
X19228Y-129528D02*
X20276Y-130576D01*
X16732Y-129528D02*
X19228D01*
X16609Y28748D02*
X16732Y28625D01*
X29400Y-141191D02*
Y-129528D01*
X16732Y-6496D02*
Y28625D01*
X16600Y-154391D02*
Y-147770D01*
X20276Y-144095D01*
X9744Y-140059D02*
Y-130413D01*
Y-140059D02*
X10876Y-141191D01*
X16600D01*
X23000Y35342D02*
X23007Y35350D01*
X23000Y-147791D02*
Y35342D01*
X16609Y34719D02*
Y41948D01*
X12303Y30413D02*
X16609Y34719D01*
X12992Y-129528D02*
X16732D01*
X12303Y-6693D02*
Y30413D01*
X1280Y-117815D02*
Y-21949D01*
Y-117815D02*
X12992Y-129528D01*
X-1673Y-20669D02*
X12303Y-6693D01*
X-1673Y-118996D02*
Y-20669D01*
Y-118996D02*
X9744Y-130413D01*
D53*
X10433Y-240262D02*
Y-246260D01*
X14432D01*
X16431Y-241262D02*
X17431Y-240262D01*
X19430D01*
X20430Y-241262D01*
Y-242261D01*
X19430Y-243261D01*
X18430D01*
X19430D01*
X20430Y-244261D01*
Y-245260D01*
X19430Y-246260D01*
X17431D01*
X16431Y-245260D01*
X32426Y-240262D02*
X28427D01*
Y-243261D01*
X30427D01*
X28427D01*
Y-246260D01*
X34425D02*
X36425D01*
X35425D01*
Y-240262D01*
X34425D01*
X42423Y-246260D02*
X40423D01*
X39424Y-245260D01*
Y-243261D01*
X40423Y-242261D01*
X42423D01*
X43422Y-243261D01*
Y-244261D01*
X39424D01*
X45422Y-242261D02*
X49420Y-246260D01*
X47421Y-244261D01*
X49420Y-242261D01*
X45422Y-246260D01*
X61417Y-241262D02*
X60417Y-240262D01*
X58418D01*
X57418Y-241262D01*
Y-242261D01*
X58418Y-243261D01*
X60417D01*
X61417Y-244261D01*
Y-245260D01*
X60417Y-246260D01*
X58418D01*
X57418Y-245260D01*
X63416Y-246260D02*
X65415D01*
X64416D01*
Y-242261D01*
X63416D01*
X70414Y-248259D02*
X71413D01*
X72413Y-247259D01*
Y-242261D01*
X69414D01*
X68414Y-243261D01*
Y-245260D01*
X69414Y-246260D01*
X72413D01*
X74412D02*
Y-242261D01*
X77411D01*
X78411Y-243261D01*
Y-246260D01*
X81410Y-242261D02*
X83410D01*
X84409Y-243261D01*
Y-246260D01*
X81410D01*
X80410Y-245260D01*
X81410Y-244261D01*
X84409D01*
X86409Y-246260D02*
X88408D01*
X87408D01*
Y-240262D01*
X86409D01*
X91407Y-246260D02*
X94406D01*
X95406Y-245260D01*
X94406Y-244261D01*
X92407D01*
X91407Y-243261D01*
X92407Y-242261D01*
X95406D01*
D54*
X-194132Y-216161D02*
X317679D01*
Y79114D01*
X-194132Y-216161D02*
Y79114D01*
X317679D01*
D55*
X-33131Y-1969D02*
G03*
X-32344Y-1181I0J787D01*
G01*
X-71714D02*
G03*
X-70927Y-1969I787J0D01*
G01*
X-145017Y0D02*
G03*
X-146517Y-1500I0J-1500D01*
G01*
Y-133500D02*
G03*
X-145017Y-135000I1500J0D01*
G01*
X4000Y-134500D02*
G03*
X0Y-134500I-2000J0D01*
G01*
X2000Y-138406D02*
G03*
X4000Y-136406I0J2000D01*
G01*
X2000Y-138406D02*
G03*
X500Y-139906I0J-1500D01*
G01*
Y-156591D02*
G03*
X2000Y-158091I1500J0D01*
G01*
X44000D02*
G03*
X45500Y-156591I0J1500D01*
G01*
Y-139906D02*
G03*
X44000Y-138406I-1500J0D01*
G01*
X42000Y-136406D02*
G03*
X44000Y-138406I2000J0D01*
G01*
Y-132500D02*
G03*
X42000Y-134500I0J-2000D01*
G01*
X42000Y-2547D02*
G03*
X44000Y-4547I2000J-0D01*
G01*
X42745Y25963D02*
G03*
X42007Y25177I50J-786D01*
G01*
X44013Y25963D02*
G03*
X45509Y27459I0J1496D01*
G01*
Y44148D02*
G03*
X44009Y45648I-1500J0D01*
G01*
X2000Y45650D02*
G03*
X500Y44150I0J-1500D01*
G01*
X509Y27459D02*
G03*
X2005Y25963I1496J0D01*
G01*
X4007Y25177D02*
G03*
X3269Y25963I-787J0D01*
G01*
X0Y-2547D02*
G03*
X4000Y-2547I2000J0D01*
G01*
X42007D02*
Y25177D01*
X45500Y-156591D02*
Y-139906D01*
X-32344Y-1181D02*
Y0D01*
X-70927Y-1969D02*
X-33131D01*
X-71714Y-1181D02*
Y0D01*
X-145017D02*
X-71714D01*
X-146517Y-133500D02*
Y-1500D01*
X-145017Y-135000D02*
X0D01*
Y-134500D01*
X4000Y-136406D02*
Y-134500D01*
X500Y-156591D02*
Y-139906D01*
X2000Y-158091D02*
X44000D01*
X42000Y-136406D02*
Y-134500D01*
X44000Y-132500D02*
X270064D01*
Y-4547D01*
X44000D02*
X270064D01*
X42745Y25963D02*
X44013D01*
X45509Y27459D02*
Y44148D01*
X44000Y45650D02*
X44009Y45648D01*
X2000Y45650D02*
X44000D01*
X500Y27459D02*
Y44150D01*
X2005Y25963D02*
X3269D01*
X4000Y-2547D02*
X4007Y25177D01*
X0Y-2547D02*
Y0D01*
X-32344D02*
X0D01*
D56*
X-157675Y51555D02*
G03*
X-157675Y51555I-8898J0D01*
G01*
X299018D02*
G03*
X299018Y51555I-8898J0D01*
G01*
Y-188602D02*
G03*
X299018Y-188602I-8898J0D01*
G01*
X-157675D02*
G03*
X-157675Y-188602I-8898J0D01*
G01*
D57*
X260904Y-8547D02*
D03*
X260904Y-78547D02*
D03*
X250904Y-28547D02*
D03*
X260904Y-48547D02*
D03*
X250904Y-38547D02*
D03*
X260904D02*
D03*
Y-58547D02*
D03*
X250904D02*
D03*
X260904Y-98547D02*
D03*
X250904D02*
D03*
X260904Y-88547D02*
D03*
X250904Y-118547D02*
D03*
Y-108547D02*
D03*
Y-88547D02*
D03*
X260904Y-68547D02*
D03*
X250904D02*
D03*
Y-78547D02*
D03*
X260904Y-18547D02*
D03*
X250904D02*
D03*
X260904Y-118547D02*
D03*
X250904Y-128547D02*
D03*
X260904Y-108547D02*
D03*
D58*
X16600Y-154391D02*
D03*
X23000Y-147791D02*
D03*
X29400Y-141191D02*
D03*
X16600D02*
D03*
X23007Y35350D02*
D03*
X16609Y41948D02*
D03*
Y28748D02*
D03*
X29409Y41948D02*
D03*
D60*
X114173Y-7480D02*
D03*
X150394Y-71949D02*
D03*
X113976Y-47244D02*
D03*
X143898D02*
D03*
X147933Y-65650D02*
D03*
X91437Y-39272D02*
D03*
X177362Y-113547D02*
D03*
X79134Y-53642D02*
D03*
X172736Y-26673D02*
D03*
X40846Y-7677D02*
D03*
X15650Y-7480D02*
D03*
X40650Y-16732D02*
D03*
X40157Y-52756D02*
D03*
X25689Y-23031D02*
D03*
X81299Y-93504D02*
D03*
X173130Y-62795D02*
D03*
X176181Y-71063D02*
D03*
X153839Y-70669D02*
D03*
X150197Y-83858D02*
D03*
X147047Y-82382D02*
D03*
X152165Y-92126D02*
D03*
X155610Y-84547D02*
D03*
X166142Y-95276D02*
D03*
X93701Y-110138D02*
D03*
X91732Y-108219D02*
D03*
X97638Y-110138D02*
D03*
X95571Y-77264D02*
D03*
X98032Y-80216D02*
D03*
X91732Y-82480D02*
D03*
X82776Y-89567D02*
D03*
X108169Y-92520D02*
D03*
X112500Y-68110D02*
D03*
X114173Y-75394D02*
D03*
X114370Y-79331D02*
D03*
X110236Y-87598D02*
D03*
X113785Y-94690D02*
D03*
X110236Y-90453D02*
D03*
X110531Y-81693D02*
D03*
X113976Y-100886D02*
D03*
X113878Y-111516D02*
D03*
X111516Y-103347D02*
D03*
X152953Y-11713D02*
D03*
X172933Y-56299D02*
D03*
X178051Y-75886D02*
D03*
X172933Y-51575D02*
D03*
X170374Y-101476D02*
D03*
X91831Y-72736D02*
D03*
X88386Y-70768D02*
D03*
X83858Y-70965D02*
D03*
Y-73425D02*
D03*
X105217Y-114764D02*
D03*
X81398Y-81102D02*
D03*
X84350Y-120079D02*
D03*
X95571Y-120472D02*
D03*
X84153Y-54823D02*
D03*
X38386Y-54626D02*
D03*
X79331Y-97441D02*
D03*
X79035Y-16732D02*
D03*
X79035Y-21260D02*
D03*
X40551Y-26969D02*
D03*
X37795Y-103937D02*
D03*
X28346D02*
D03*
X29400Y-129528D02*
D03*
X16732D02*
D03*
X32087Y36024D02*
D03*
X29331Y-145669D02*
D03*
X34252Y-149606D02*
D03*
X26575Y37402D02*
D03*
X33465Y33465D02*
D03*
X30906Y-149606D02*
D03*
X101575Y-111516D02*
D03*
X99508Y-103937D02*
D03*
X35925Y-73819D02*
D03*
X178347Y-128543D02*
D03*
X147343Y-123547D02*
D03*
X34252Y-12598D02*
D03*
X159744Y-57776D02*
D03*
X154921Y-61516D02*
D03*
X38386Y-61221D02*
D03*
X31299Y-57087D02*
D03*
Y-54528D02*
D03*
Y-51968D02*
D03*
Y-49213D02*
D03*
X34057Y-46557D02*
D03*
X28445Y-31988D02*
D03*
X34252Y-10236D02*
D03*
X110800Y-122200D02*
D03*
X174508Y-13100D02*
D03*
D62*
X114250Y-7458D02*
X173303D01*
X179230Y-13386D01*
X256066D01*
X260904Y-8547D01*
M02*
