%FSLAX25Y25*%
%MOIN*%
G70*
G01*
G75*
G04 Layer_Physical_Order=1*
G04 Layer_Color=16724787*
%ADD10R,0.01969X0.01969*%
%ADD11C,0.03937*%
%ADD12R,0.02953X0.01969*%
%ADD13R,0.03740X0.06102*%
%ADD14R,0.01575X0.01575*%
%ADD15R,0.02362X0.03937*%
%ADD16R,0.03937X0.02559*%
%ADD17R,0.03937X0.02362*%
%ADD18R,0.01969X0.02953*%
%ADD19R,0.00984X0.02756*%
%ADD20R,0.09449X0.06496*%
%ADD21C,0.01969*%
%ADD22R,0.06102X0.03740*%
%ADD23R,0.05512X0.05512*%
%ADD24R,0.01575X0.03937*%
%ADD25R,0.01575X0.03347*%
%ADD26R,0.01181X0.01969*%
%ADD27R,0.01772X0.03740*%
%ADD28R,0.06496X0.09449*%
%ADD29R,0.02756X0.00984*%
%ADD30R,0.03150X0.03150*%
%ADD31R,0.07874X0.02362*%
%ADD32R,0.01969X0.02362*%
%ADD33R,0.28150X0.28150*%
%ADD34R,0.07874X0.09449*%
%ADD35R,0.03347X0.01575*%
%ADD36R,0.01575X0.05512*%
%ADD37R,0.01575X0.01575*%
%ADD38R,0.03740X0.01772*%
%ADD39R,0.03937X0.02756*%
%ADD40R,0.02756X0.03937*%
%ADD41C,0.00984*%
%ADD42R,0.01969X0.01181*%
%ADD43R,0.01575X0.01378*%
%ADD44R,0.01378X0.01575*%
%ADD45R,0.01181X0.06102*%
%ADD46C,0.00984*%
%ADD47C,0.00787*%
%ADD48C,0.01772*%
%ADD49C,0.00591*%
%ADD50C,0.01181*%
%ADD51C,0.01969*%
%ADD52C,0.01575*%
%ADD53C,0.01000*%
%ADD54C,0.00098*%
%ADD55C,0.00197*%
%ADD56C,0.00799*%
%ADD57C,0.06000*%
%ADD58C,0.04000*%
%ADD59C,0.15799*%
%ADD60C,0.01772*%
%ADD61C,0.01575*%
G36*
X22244Y-94095D02*
X27756D01*
Y-96457D01*
X26969Y-97244D01*
X19685D01*
X18898Y-98032D01*
X7087D01*
X3740Y-94685D01*
Y-91732D01*
X6693D01*
X10236Y-95276D01*
X15748D01*
X19291Y-91732D01*
X22244D01*
Y-94095D01*
D02*
G37*
G36*
X26969Y-79528D02*
X22244Y-84252D01*
Y-85827D01*
X19291D01*
X15748Y-82284D01*
X10236D01*
X6693Y-85827D01*
X3740D01*
Y-82874D01*
X7087Y-79528D01*
X17913D01*
Y-79527D01*
X18602Y-78839D01*
X26969D01*
Y-79528D01*
D02*
G37*
D10*
X177522Y-21280D02*
D03*
X6262Y-102776D02*
D03*
D11*
X-146888Y31870D02*
D03*
X270435D02*
D03*
Y-168918D02*
D03*
X-146888D02*
D03*
D12*
X3740Y-149606D02*
D03*
Y-145669D02*
D03*
X10039Y-145669D02*
D03*
Y-141732D02*
D03*
Y-149606D02*
D03*
Y-153543D02*
D03*
X37402Y-141732D02*
D03*
Y-145669D02*
D03*
Y-149606D02*
D03*
Y-153543D02*
D03*
X42126Y-149606D02*
D03*
Y-145669D02*
D03*
X6890Y-110039D02*
D03*
Y-113976D02*
D03*
X26969Y-108071D02*
D03*
Y-112008D02*
D03*
X6299Y-55512D02*
D03*
Y-51575D02*
D03*
X10827D02*
D03*
Y-55512D02*
D03*
X15354Y-51575D02*
D03*
Y-55512D02*
D03*
X17126Y-29724D02*
D03*
Y-33661D02*
D03*
X32087Y-67126D02*
D03*
Y-63189D02*
D03*
X79331Y-121850D02*
D03*
Y-117913D02*
D03*
X88779Y-121358D02*
D03*
Y-117421D02*
D03*
X92913Y-121358D02*
D03*
Y-117421D02*
D03*
X98622D02*
D03*
Y-121358D02*
D03*
X99606Y-129823D02*
D03*
Y-125886D02*
D03*
X103543Y-129823D02*
D03*
Y-125886D02*
D03*
X107480D02*
D03*
Y-129823D02*
D03*
X78445Y-60138D02*
D03*
Y-56201D02*
D03*
X93405Y-55709D02*
D03*
Y-51772D02*
D03*
X79035Y-23425D02*
D03*
Y-27362D02*
D03*
X104823Y-11220D02*
D03*
Y-7283D02*
D03*
X114469Y-40453D02*
D03*
Y-44390D02*
D03*
X110630Y-68110D02*
D03*
Y-64173D02*
D03*
X114764Y-68110D02*
D03*
Y-64173D02*
D03*
X153150Y-33957D02*
D03*
Y-37894D02*
D03*
X157776Y-63583D02*
D03*
Y-59646D02*
D03*
X168012Y-71063D02*
D03*
Y-67126D02*
D03*
X172146Y-71063D02*
D03*
Y-67126D02*
D03*
X176181Y-71063D02*
D03*
Y-67126D02*
D03*
X143701Y-74803D02*
D03*
Y-78740D02*
D03*
X147933D02*
D03*
Y-74803D02*
D03*
X153839D02*
D03*
Y-78740D02*
D03*
X155610Y-91437D02*
D03*
Y-95374D02*
D03*
X145965Y-96949D02*
D03*
Y-93012D02*
D03*
Y-104429D02*
D03*
Y-100492D02*
D03*
X154232Y-106988D02*
D03*
Y-103051D02*
D03*
X13091Y-33661D02*
D03*
Y-37598D02*
D03*
X9055Y-33661D02*
D03*
Y-37598D02*
D03*
X4921D02*
D03*
Y-33661D02*
D03*
D13*
X40748Y-128347D02*
D03*
X33661D02*
D03*
X29331Y-120866D02*
D03*
X22244D02*
D03*
X5906Y-128347D02*
D03*
X12992D02*
D03*
X39370Y-109449D02*
D03*
X32283D02*
D03*
X15551Y-73032D02*
D03*
X22638D02*
D03*
D14*
X38780Y-121850D02*
D03*
X34252D02*
D03*
Y-117717D02*
D03*
X38780D02*
D03*
X9252Y-122441D02*
D03*
X13780D02*
D03*
Y-118898D02*
D03*
X9252D02*
D03*
X11319Y-15551D02*
D03*
X15846D02*
D03*
X15945Y-11417D02*
D03*
X11417D02*
D03*
D15*
X20276Y-129134D02*
D03*
X25787D02*
D03*
X28740Y-100000D02*
D03*
X23228D02*
D03*
X18504Y-21260D02*
D03*
X12992D02*
D03*
X27362D02*
D03*
X21850D02*
D03*
X174508Y-15846D02*
D03*
X180020D02*
D03*
Y-7579D02*
D03*
X174508D02*
D03*
X147343Y-126673D02*
D03*
X152854D02*
D03*
X166142Y-109941D02*
D03*
X171653D02*
D03*
X178347Y-128937D02*
D03*
X172835D02*
D03*
D16*
X12008Y-106299D02*
D03*
Y-110039D02*
D03*
Y-113779D02*
D03*
X22244D02*
D03*
Y-106299D02*
D03*
X30512Y-35236D02*
D03*
Y-38976D02*
D03*
Y-42717D02*
D03*
X40748D02*
D03*
Y-35236D02*
D03*
D17*
X33268Y-103937D02*
D03*
Y-98425D02*
D03*
X39961Y-76772D02*
D03*
Y-71260D02*
D03*
X32776Y-76575D02*
D03*
Y-71063D02*
D03*
X27756Y-76575D02*
D03*
Y-71063D02*
D03*
X84350Y-123130D02*
D03*
Y-117618D02*
D03*
X147343Y-24902D02*
D03*
Y-19390D02*
D03*
X152953D02*
D03*
Y-24902D02*
D03*
X157579Y-126673D02*
D03*
Y-121161D02*
D03*
X178347Y-118996D02*
D03*
Y-124508D02*
D03*
X8858Y-47047D02*
D03*
Y-41535D02*
D03*
X14173Y-47047D02*
D03*
Y-41535D02*
D03*
D18*
X41535Y-96063D02*
D03*
X37598D02*
D03*
X12795Y-25984D02*
D03*
X16732D02*
D03*
X37402Y-18799D02*
D03*
X41339D02*
D03*
X34449Y-22736D02*
D03*
X30512D02*
D03*
X37402D02*
D03*
X41339D02*
D03*
X41339Y-26969D02*
D03*
X37402D02*
D03*
X34449D02*
D03*
X30512D02*
D03*
X34449Y-30906D02*
D03*
X30512D02*
D03*
X41339D02*
D03*
X37402D02*
D03*
X37008Y-65748D02*
D03*
X40945D02*
D03*
X96161Y-125197D02*
D03*
X92224D02*
D03*
X92224Y-129331D02*
D03*
X96161D02*
D03*
X115059Y-118110D02*
D03*
X111122D02*
D03*
X115059Y-122047D02*
D03*
X111122D02*
D03*
Y-126083D02*
D03*
X115059D02*
D03*
Y-130020D02*
D03*
X111122D02*
D03*
X111614Y-75098D02*
D03*
X107677D02*
D03*
X103445D02*
D03*
X99508D02*
D03*
X92618D02*
D03*
X96555D02*
D03*
X81890Y-54823D02*
D03*
X85827D02*
D03*
X97244Y-47933D02*
D03*
X93307D02*
D03*
Y-43898D02*
D03*
X97244D02*
D03*
X94488Y-23228D02*
D03*
X90551D02*
D03*
Y-10433D02*
D03*
X94488D02*
D03*
Y-14961D02*
D03*
X90551D02*
D03*
X94488Y-18898D02*
D03*
X90551D02*
D03*
X101378Y-10433D02*
D03*
X97441D02*
D03*
X108268Y-7283D02*
D03*
X112205D02*
D03*
X112205Y-11220D02*
D03*
X108268D02*
D03*
X99114Y-14961D02*
D03*
X103051D02*
D03*
Y-18898D02*
D03*
X99114D02*
D03*
X166240Y-22343D02*
D03*
X170177D02*
D03*
X166240Y-26476D02*
D03*
X170177D02*
D03*
X179429Y-26181D02*
D03*
X175492D02*
D03*
X161417Y-42323D02*
D03*
X165354D02*
D03*
X172933Y-55118D02*
D03*
X176870D02*
D03*
X176083Y-59547D02*
D03*
X180020D02*
D03*
X175591Y-63583D02*
D03*
X179528D02*
D03*
X147146Y-50492D02*
D03*
X143209D02*
D03*
X174311Y-75984D02*
D03*
X170374D02*
D03*
X150394Y-83957D02*
D03*
X154331D02*
D03*
X152264Y-98819D02*
D03*
X156201D02*
D03*
D19*
X27362Y-82284D02*
D03*
X29331D02*
D03*
X31299D02*
D03*
X33268D02*
D03*
Y-93307D02*
D03*
X31299D02*
D03*
X29331D02*
D03*
X27362D02*
D03*
X95669Y-79134D02*
D03*
X81890D02*
D03*
X83858D02*
D03*
X85827D02*
D03*
X87795D02*
D03*
X89764D02*
D03*
X91732D02*
D03*
X93701D02*
D03*
X97638D02*
D03*
X99606D02*
D03*
X101575D02*
D03*
X103543D02*
D03*
X105512D02*
D03*
X107480D02*
D03*
X109449D02*
D03*
X111417D02*
D03*
Y-113779D02*
D03*
X109449D02*
D03*
X107480D02*
D03*
X105512D02*
D03*
X103543D02*
D03*
X101575D02*
D03*
X99606D02*
D03*
X97638D02*
D03*
X93701D02*
D03*
X91732D02*
D03*
X89764D02*
D03*
X87795D02*
D03*
X85827D02*
D03*
X83858D02*
D03*
X81890D02*
D03*
X95669D02*
D03*
D20*
X30315Y-87795D02*
D03*
D21*
X12992Y-96653D02*
D03*
Y-80905D02*
D03*
D22*
X8661Y-71260D02*
D03*
Y-64173D02*
D03*
D23*
X26772Y-65158D02*
D03*
X15748D02*
D03*
D24*
X27559Y-58465D02*
D03*
X25000D02*
D03*
X22441D02*
D03*
X19882D02*
D03*
Y-48622D02*
D03*
X22441D02*
D03*
X25000D02*
D03*
X27559D02*
D03*
X86713Y-19291D02*
D03*
X84153D02*
D03*
X81595D02*
D03*
X79035D02*
D03*
Y-9449D02*
D03*
X81595D02*
D03*
X84153D02*
D03*
X86713D02*
D03*
D25*
X33268Y-57874D02*
D03*
X35827D02*
D03*
X38386D02*
D03*
Y-49213D02*
D03*
X35827D02*
D03*
X33268D02*
D03*
D26*
X23622Y-42520D02*
D03*
X21654D02*
D03*
X19685D02*
D03*
Y-37402D02*
D03*
X21654D02*
D03*
X23622D02*
D03*
X24606Y-30610D02*
D03*
X22638D02*
D03*
X20669D02*
D03*
Y-27657D02*
D03*
X22638D02*
D03*
X24606D02*
D03*
X86713Y-26870D02*
D03*
X84744D02*
D03*
X82776D02*
D03*
Y-23917D02*
D03*
X84744D02*
D03*
X86713D02*
D03*
X146850Y-87598D02*
D03*
X144882D02*
D03*
X142913D02*
D03*
Y-84646D02*
D03*
X144882D02*
D03*
X146850D02*
D03*
X97244Y-39272D02*
D03*
X95276D02*
D03*
X93307D02*
D03*
Y-36319D02*
D03*
X95276D02*
D03*
X97244D02*
D03*
D27*
X4528Y-29528D02*
D03*
X8465D02*
D03*
X6496Y-23425D02*
D03*
D28*
X26181Y-12402D02*
D03*
D29*
X20669Y-9449D02*
D03*
Y-11417D02*
D03*
Y-13386D02*
D03*
Y-15354D02*
D03*
X31693D02*
D03*
Y-13386D02*
D03*
Y-11417D02*
D03*
Y-9449D02*
D03*
X79331Y-95472D02*
D03*
Y-81693D02*
D03*
Y-83661D02*
D03*
Y-85630D02*
D03*
Y-87598D02*
D03*
Y-89567D02*
D03*
Y-91535D02*
D03*
Y-93504D02*
D03*
Y-97441D02*
D03*
Y-99410D02*
D03*
Y-101378D02*
D03*
Y-103347D02*
D03*
Y-105315D02*
D03*
Y-107283D02*
D03*
Y-109252D02*
D03*
Y-111221D02*
D03*
X113976D02*
D03*
Y-109252D02*
D03*
Y-107283D02*
D03*
Y-105315D02*
D03*
Y-103347D02*
D03*
Y-101378D02*
D03*
Y-99410D02*
D03*
Y-97441D02*
D03*
Y-93504D02*
D03*
Y-91535D02*
D03*
Y-89567D02*
D03*
Y-87598D02*
D03*
Y-85630D02*
D03*
Y-83661D02*
D03*
Y-81693D02*
D03*
Y-95472D02*
D03*
D30*
X6496Y-9941D02*
D03*
Y-18799D02*
D03*
D31*
X38583Y-15157D02*
D03*
Y-6890D02*
D03*
D32*
X79331Y-129429D02*
D03*
Y-125492D02*
D03*
D33*
X96653Y-96457D02*
D03*
D34*
X103937Y-66142D02*
D03*
X88189D02*
D03*
D35*
X97736Y-56890D02*
D03*
Y-51772D02*
D03*
X106398D02*
D03*
Y-54331D02*
D03*
Y-56890D02*
D03*
D36*
X79134Y-32185D02*
D03*
X81693D02*
D03*
X84252D02*
D03*
X86811D02*
D03*
Y-49508D02*
D03*
X84252D02*
D03*
X81693D02*
D03*
X79134D02*
D03*
X110138Y-42224D02*
D03*
X107579D02*
D03*
X105020D02*
D03*
X102461D02*
D03*
Y-24902D02*
D03*
X105020D02*
D03*
X107579D02*
D03*
X110138D02*
D03*
X170374Y-32087D02*
D03*
X172933D02*
D03*
X175492D02*
D03*
X178051D02*
D03*
Y-49409D02*
D03*
X175492D02*
D03*
X172933D02*
D03*
X170374D02*
D03*
D37*
X115157Y-9154D02*
D03*
Y-13681D02*
D03*
D38*
X107972Y-14961D02*
D03*
Y-18898D02*
D03*
X114075Y-16929D02*
D03*
D39*
X145905Y-11516D02*
D03*
X153898Y-15256D02*
D03*
Y-7776D02*
D03*
X170335Y-11516D02*
D03*
X162343Y-7776D02*
D03*
Y-15256D02*
D03*
X156378Y-50492D02*
D03*
X164370Y-54232D02*
D03*
Y-46752D02*
D03*
D40*
X161221Y-29862D02*
D03*
X157480Y-37854D02*
D03*
X164961D02*
D03*
X148425Y-119744D02*
D03*
X152165Y-111752D02*
D03*
X144685D02*
D03*
X167520Y-125157D02*
D03*
X171260Y-117165D02*
D03*
X163779D02*
D03*
D41*
X162697Y-60827D02*
D03*
X168602Y-62795D02*
D03*
X166634D02*
D03*
X164665D02*
D03*
X162697D02*
D03*
X164665Y-60827D02*
D03*
X166634D02*
D03*
X168602D02*
D03*
X159941Y-67520D02*
D03*
Y-69488D02*
D03*
Y-71457D02*
D03*
X161909Y-73425D02*
D03*
Y-71457D02*
D03*
Y-69488D02*
D03*
Y-67520D02*
D03*
X159941Y-73425D02*
D03*
X152165Y-87598D02*
D03*
X150197Y-93504D02*
D03*
Y-91535D02*
D03*
Y-89567D02*
D03*
Y-87598D02*
D03*
X152165Y-89567D02*
D03*
Y-91535D02*
D03*
Y-93504D02*
D03*
D42*
X147343Y-57579D02*
D03*
Y-55610D02*
D03*
Y-53642D02*
D03*
X152461D02*
D03*
Y-55610D02*
D03*
Y-57579D02*
D03*
D43*
X152657Y-62697D02*
D03*
Y-65256D02*
D03*
Y-67815D02*
D03*
Y-70374D02*
D03*
X143209Y-70374D02*
D03*
Y-67815D02*
D03*
Y-65256D02*
D03*
Y-62697D02*
D03*
D44*
X147933Y-61811D02*
D03*
Y-71260D02*
D03*
D45*
X169685Y-103642D02*
D03*
X179921D02*
D03*
X177362D02*
D03*
X174803D02*
D03*
X172244D02*
D03*
X167126D02*
D03*
X164567D02*
D03*
X162008D02*
D03*
Y-81595D02*
D03*
X164567D02*
D03*
X167126D02*
D03*
X169685D02*
D03*
X172244D02*
D03*
X174803D02*
D03*
X177362D02*
D03*
X179921D02*
D03*
D46*
X90945Y-18504D02*
X90945Y-18504D01*
X86614Y-18504D02*
X90945D01*
X79035Y-32185D02*
Y-27559D01*
X79232Y-27362D01*
X180020Y-59547D02*
Y-55512D01*
X180020Y-65847D02*
Y-63583D01*
X176870Y-55512D02*
X179232D01*
X172146Y-67126D02*
X178740D01*
X170374Y-26673D02*
Y-22343D01*
X170177Y-26673D02*
X170374D01*
X164370Y-67126D02*
X168110D01*
X113976Y-44193D02*
X114469D01*
X113976Y-63386D02*
Y-44193D01*
X41240Y-65748D02*
Y-53839D01*
X179232Y-55512D02*
X180020D01*
X147736Y-46358D02*
X151870Y-50492D01*
X151319Y-117165D02*
X152992D01*
X145905Y-19331D02*
X147400D01*
X152165Y-98819D02*
Y-95374D01*
X33268Y-82284D02*
Y-80610D01*
X81693Y-55020D02*
Y-49508D01*
X83858Y-79134D02*
Y-75984D01*
X31299Y-82284D02*
Y-79331D01*
X31890Y-76772D02*
X39961D01*
X27756Y-38976D02*
X30512D01*
X18504Y-23704D02*
Y-20472D01*
X165354Y-46752D02*
Y-42323D01*
X115157Y-16929D02*
Y-13681D01*
X37008Y-42717D02*
X40748D01*
X4528Y-33661D02*
Y-29528D01*
X41339Y-35236D02*
Y-30906D01*
X12992Y-33661D02*
Y-31299D01*
X147400Y-19331D02*
Y-16000D01*
X145905Y-14505D02*
X147400Y-16000D01*
X145905Y-14505D02*
Y-11516D01*
X96555Y-75098D02*
Y-72755D01*
X95500Y-71700D02*
X96555Y-72755D01*
X92800Y-71700D02*
X95500D01*
X88189Y-67089D02*
X92800Y-71700D01*
X88189Y-67089D02*
Y-66142D01*
X103937Y-67063D02*
Y-66142D01*
X99508Y-71492D02*
X103937Y-67063D01*
X99508Y-75098D02*
Y-71492D01*
X114075Y-16929D02*
X115157D01*
X22638Y-72441D02*
X24016Y-71063D01*
X22638Y-73032D02*
Y-72441D01*
X33268Y-57087D02*
X33268Y-57087D01*
X33268Y-57874D02*
Y-57087D01*
X40748Y-71260D02*
X40945Y-71063D01*
X39961Y-71260D02*
X40748D01*
X26575Y-65158D02*
X26772D01*
X25000Y-63583D02*
X26575Y-65158D01*
X31299Y-62795D02*
X31693Y-63189D01*
X32087D01*
X25000Y-63583D02*
Y-58465D01*
X19308Y-24508D02*
X25197D01*
X18504Y-23704D02*
X19308Y-24508D01*
X40551Y-15157D02*
X41339Y-15945D01*
X38583Y-15157D02*
X40551D01*
X110236Y-44193D02*
X113976D01*
X110138Y-44094D02*
X110236Y-44193D01*
X110138Y-44094D02*
Y-42224D01*
X110236Y-44193D02*
Y-43996D01*
X102461Y-29134D02*
Y-24902D01*
X12992Y-21161D02*
Y-19882D01*
X11417Y-11417D02*
X13780Y-9055D01*
X14173D01*
X40650Y-22736D02*
X41339D01*
X40650Y-99016D02*
X41535Y-98130D01*
Y-96063D01*
X25197Y-24508D02*
X27264Y-26575D01*
Y-38484D02*
Y-26575D01*
X15354Y-51575D02*
X17126Y-53347D01*
X23031D01*
X18004Y-51199D02*
Y-49697D01*
Y-51199D02*
X18569Y-51764D01*
X21858D01*
X22441Y-51181D01*
Y-48622D01*
X15354Y-47047D02*
X18004Y-49697D01*
X14173Y-47047D02*
X15354D01*
X23031Y-53347D02*
X25000Y-51378D01*
Y-48622D01*
X27264Y-38484D02*
X27756Y-38976D01*
X178740Y-67126D02*
X180020Y-65847D01*
X168504Y-67126D02*
X172146D01*
X163976Y-67520D02*
X164370Y-67126D01*
X113976Y-63386D02*
X114764Y-64173D01*
X143209Y-47933D02*
X143898Y-47244D01*
X143209Y-50492D02*
Y-47933D01*
X153937Y-102756D02*
X154232Y-103051D01*
X150394Y-102756D02*
X153937D01*
X150295Y-102657D02*
X150394Y-102756D01*
X156102Y-98917D02*
X156201Y-98819D01*
X156102Y-101181D02*
Y-98917D01*
X154232Y-103051D02*
X156102Y-101181D01*
X152165Y-95374D02*
X152190Y-95349D01*
X142421Y-34646D02*
X144980Y-37205D01*
Y-43602D02*
Y-37205D01*
X30512Y-27067D02*
Y-26969D01*
Y-30906D02*
Y-27067D01*
X158071Y-14173D02*
Y-8760D01*
X157087Y-7776D02*
X158071Y-8760D01*
X153898Y-7776D02*
X157087D01*
X158071Y-14173D02*
X159153Y-15256D01*
X162343D01*
X162539D01*
X143209Y-55610D02*
Y-50492D01*
X180020Y-63583D02*
Y-59547D01*
X165354Y-42323D02*
X173031D01*
X178051Y-37303D01*
Y-32087D01*
X164370Y-54232D02*
X169390D01*
X170374Y-53248D01*
Y-49409D01*
X93307Y-47933D02*
X93307Y-47933D01*
X89764Y-47933D02*
X93307D01*
X89764Y-53248D02*
Y-47933D01*
X93307Y-47933D02*
X93405Y-48031D01*
Y-51772D02*
Y-48031D01*
Y-51772D02*
X93405Y-51772D01*
X97736D01*
X97244Y-47933D02*
Y-43898D01*
Y-47933D02*
X100197D01*
X100197Y-47933D01*
X101181Y-48917D01*
Y-56201D02*
Y-48917D01*
X100492Y-56890D02*
X101181Y-56201D01*
X97736Y-56890D02*
X100492D01*
X110630Y-64173D02*
Y-53051D01*
X109350Y-51772D02*
X110630Y-53051D01*
X106398Y-51772D02*
X109350D01*
X85827Y-54823D02*
X88189D01*
X89764Y-53248D01*
X40945Y-71063D02*
Y-65748D01*
X103051Y-18898D02*
X107972D01*
X103051Y-14961D02*
X107972D01*
X86713Y-26870D02*
X89567D01*
X90551Y-25886D01*
Y-23228D01*
X79035Y-23425D02*
X82284D01*
X90551Y-23228D02*
Y-18898D01*
X94488D02*
Y-14961D01*
Y-23228D02*
Y-18898D01*
Y-10433D02*
X97441D01*
X90551Y-14961D02*
Y-10433D01*
X84153Y-12894D02*
X86221Y-14961D01*
X90551D01*
X98228Y-7283D02*
X104724D01*
X97047Y-6102D02*
X98228Y-7283D01*
X82087Y-6102D02*
X97047D01*
X81595Y-9449D02*
Y-6594D01*
X82087Y-6102D01*
X81595Y-19291D02*
Y-9449D01*
X84153Y-12894D02*
Y-9449D01*
X105315Y-7283D02*
X108268D01*
X108268Y-7283D01*
Y-11220D02*
Y-7283D01*
X41339Y-30906D02*
X41339Y-30906D01*
X41339Y-30906D02*
Y-26969D01*
X41339Y-26969D01*
Y-23031D01*
X30512Y-35236D02*
Y-30906D01*
X36024Y-36811D02*
X37402Y-35433D01*
Y-30906D01*
X34449Y-35236D02*
X36024Y-36811D01*
X34449Y-35236D02*
Y-30906D01*
X36024Y-41732D02*
Y-36811D01*
Y-41732D02*
X37008Y-42717D01*
X34449Y-26969D02*
X37402D01*
X13189Y-37598D02*
X15551D01*
X17126Y-36024D01*
Y-33661D01*
X13189Y-37598D02*
X13189Y-37598D01*
X8858Y-41535D02*
X9055Y-41339D01*
Y-37598D01*
X9252Y-37795D01*
X4921Y-33661D02*
X9055D01*
X8858Y-47047D02*
X14173D01*
X29331Y-93307D02*
X29331Y-93307D01*
X19882Y-80905D02*
X23228D01*
X19488Y-96457D02*
X26575D01*
X27362Y-95669D01*
Y-93307D01*
X26772Y-145669D02*
X29331D01*
X25197Y-144095D02*
X26772Y-145669D01*
X33268Y-142913D02*
X34449Y-141732D01*
X33268Y-144685D02*
Y-142913D01*
X32283Y-145669D02*
X33268Y-144685D01*
X29331Y-145669D02*
X32283D01*
X34449Y-141732D02*
X37402D01*
X3740Y-149606D02*
X10039D01*
X27362Y-84842D02*
Y-82284D01*
X29331Y-98622D02*
Y-93307D01*
Y-99213D02*
Y-98622D01*
X23228Y-80905D02*
X24803Y-79331D01*
X31299D01*
Y-77362D02*
X31890Y-76772D01*
X31299Y-79331D02*
Y-77362D01*
X39961Y-76772D02*
X39961Y-76772D01*
X22441Y-61811D02*
Y-58465D01*
X21260Y-62992D02*
X22441Y-61811D01*
X17520Y-62992D02*
X21260D01*
X10827Y-55512D02*
X15354D01*
X10827Y-58465D02*
Y-55512D01*
X8661Y-60630D02*
X10827Y-58465D01*
X8661Y-64173D02*
Y-60630D01*
X6299Y-51575D02*
X10827D01*
X15354D01*
X27559Y-58465D02*
X28937D01*
X31299Y-60827D01*
Y-62795D02*
Y-60827D01*
X33268Y-51772D02*
Y-49213D01*
X32087Y-52953D02*
X33268Y-51772D01*
X27559Y-51575D02*
Y-48622D01*
Y-51575D02*
X28937Y-52953D01*
X32087D01*
X11417Y-14764D02*
Y-11417D01*
X20669Y-13386D02*
X20669Y-13386D01*
X23228D01*
X31693Y-9449D02*
X31693Y-9449D01*
X29134Y-9449D02*
X31693D01*
X26969Y-149606D02*
X30906D01*
X25000Y-151575D02*
X26969Y-149606D01*
X19488Y-144095D02*
X25197D01*
X17913Y-145669D02*
X19488Y-144095D01*
X10039Y-145669D02*
X17913D01*
X10039Y-149606D02*
X17913D01*
X19882Y-151575D01*
X25000D01*
X91437Y-39272D02*
X93307D01*
X83858Y-79134D02*
X83858Y-79134D01*
X33268Y-82284D02*
X33268Y-82284D01*
Y-80610D02*
X34547Y-79331D01*
X9055Y-37598D02*
X13091D01*
X13189D01*
X143209Y-55610D02*
X147343D01*
X143209Y-62697D02*
Y-55610D01*
X175492Y-32087D02*
Y-26181D01*
X175492Y-32087D02*
X175492Y-32087D01*
X175492Y-36417D02*
Y-32087D01*
X174055Y-37854D02*
X175492Y-36417D01*
X164961Y-37854D02*
X174055D01*
X153150Y-37894D02*
X157441D01*
X157480Y-37854D01*
X170374Y-32087D02*
X170374Y-32087D01*
X170177Y-22343D02*
X170374D01*
X142421Y-9646D02*
X144291Y-7776D01*
X153898D01*
X142421Y-34646D02*
Y-9646D01*
X153150Y-40157D02*
Y-37894D01*
X144980Y-43602D02*
X147736Y-46358D01*
X151870Y-50492D02*
X156378D01*
X31693Y-17520D02*
Y-17323D01*
X4528Y-29528D02*
Y-28839D01*
X6496Y-18799D02*
Y-18504D01*
Y-22736D02*
Y-18799D01*
X8465Y-29528D02*
X11220D01*
X12992Y-31299D01*
X152992Y-117165D02*
X163779D01*
X144685Y-114665D02*
Y-111752D01*
Y-114665D02*
X145768Y-115748D01*
X149902D01*
X151319Y-117165D01*
X157579Y-126673D02*
X157579Y-126673D01*
X152854Y-126673D02*
X157579D01*
X6496Y-13878D02*
Y-9941D01*
X161909Y-67520D02*
X163976D01*
X41339Y-18799D02*
Y-15945D01*
X37402Y-22933D02*
Y-22736D01*
Y-18996D01*
X6496Y-13878D02*
X9252Y-16634D01*
Y-23031D02*
Y-16634D01*
X21850Y-21260D02*
Y-20472D01*
X23425Y-18898D01*
Y-16929D01*
X38386Y-51870D02*
Y-49213D01*
X40157Y-52756D02*
X41240Y-53839D01*
X38386Y-51870D02*
X39165Y-52650D01*
X40051D01*
X40157Y-52756D01*
X15748Y-64764D02*
X17520Y-62992D01*
X19882Y-58465D02*
Y-56791D01*
X16240Y-55413D02*
X18504D01*
X19882Y-56791D01*
X88779Y-123524D02*
Y-121358D01*
X92913D01*
X78445Y-56201D02*
X79035D01*
X79134Y-56102D01*
Y-53642D01*
X170177Y-26673D02*
Y-26476D01*
X170374Y-26673D02*
X172736D01*
X170374Y-32087D02*
Y-26673D01*
D47*
X114567Y-118209D02*
X115059Y-118701D01*
X156102Y-98844D02*
Y-95669D01*
X146850Y-93012D02*
Y-87598D01*
X147933Y-61811D02*
Y-57382D01*
Y-65650D02*
Y-61811D01*
X142913Y-87795D02*
X143110Y-87598D01*
X170531Y-18642D02*
Y-8602D01*
X89764Y-113779D02*
Y-109941D01*
X109449Y-113779D02*
Y-110138D01*
X40650Y-128347D02*
Y-121850D01*
X85827Y-79134D02*
Y-74902D01*
X84252Y-49508D02*
Y-43307D01*
X162205Y-103642D02*
Y-97047D01*
X179921Y-103642D02*
Y-88878D01*
X31299Y-57087D02*
X33268D01*
X99606Y-79134D02*
Y-77106D01*
X167126Y-81595D02*
Y-77854D01*
X164567Y-103642D02*
Y-92618D01*
X177362Y-103642D02*
Y-93307D01*
X97638Y-79134D02*
Y-77461D01*
X167126Y-103642D02*
Y-97539D01*
X17126Y-29724D02*
Y-25984D01*
X114665Y-126083D02*
X115059Y-126476D01*
X172244Y-109941D02*
Y-103642D01*
X87795Y-117422D02*
Y-117421D01*
Y-113779D01*
X111417Y-118209D02*
Y-113779D01*
X152657Y-62697D02*
Y-57579D01*
X105512Y-79134D02*
Y-73228D01*
X33087Y-7087D02*
X38583D01*
X21654Y-9547D02*
Y-7087D01*
X27362Y-19685D02*
X29528D01*
X162205Y-88878D02*
Y-81595D01*
X24571Y-108071D02*
X26969D01*
X22915Y-106415D02*
X24571Y-108071D01*
X101575Y-84775D02*
Y-79134D01*
Y-84775D02*
X101600Y-84800D01*
X99508Y-77008D02*
Y-75098D01*
Y-77008D02*
X99606Y-77106D01*
X97146Y-76968D02*
Y-75689D01*
X96555Y-75098D02*
X97146Y-75689D01*
X83858Y-30315D02*
Y-29134D01*
X82776Y-28051D02*
X83858Y-29134D01*
X18504Y-20472D02*
Y-18604D01*
X17616Y-17717D02*
X18504Y-18604D01*
X16339Y-17717D02*
X17616D01*
X27362Y-19685D02*
X27362Y-19685D01*
Y-21260D02*
Y-19685D01*
X35630Y-15157D02*
X38386D01*
X33858Y-13386D02*
X35630Y-15157D01*
X32299Y-6299D02*
X33087Y-7087D01*
X22441Y-6299D02*
X32299D01*
X115059Y-122047D02*
Y-118701D01*
X94587Y-32087D02*
X107480D01*
X93307Y-33366D02*
X94587Y-32087D01*
X93307Y-36319D02*
Y-33366D01*
X146358Y-81988D02*
Y-81201D01*
X144882Y-83464D02*
X146358Y-81988D01*
X144882Y-84646D02*
Y-83464D01*
X149803Y-53642D02*
X149902Y-53543D01*
X22638Y-26476D02*
X22638Y-26476D01*
Y-27657D02*
Y-26476D01*
X24606Y-33268D02*
Y-30610D01*
Y-33268D02*
X25689Y-34350D01*
Y-43996D02*
Y-34350D01*
X21654Y-44980D02*
X21752Y-45079D01*
X21654Y-44980D02*
Y-42520D01*
X25689Y-43996D02*
X26969Y-45276D01*
X95276Y-34055D02*
X95276Y-34055D01*
Y-36319D02*
Y-34055D01*
X168012Y-64665D02*
X169685D01*
X166634Y-63287D02*
X168012Y-64665D01*
X166634Y-63287D02*
Y-62795D01*
X172146Y-67126D02*
Y-64272D01*
X161327Y-63980D02*
X161513D01*
X162697Y-62795D01*
X159941Y-65365D02*
X161327Y-63980D01*
X159941Y-67520D02*
Y-65365D01*
X156004Y-70571D02*
X156693Y-71260D01*
Y-79331D02*
Y-71260D01*
Y-79331D02*
X157972Y-80610D01*
X159850Y-84835D02*
Y-79142D01*
X158268Y-77559D02*
X159850Y-79142D01*
X158268Y-77559D02*
Y-72146D01*
X158752Y-67315D02*
X158957Y-67520D01*
X157095Y-67315D02*
X158752D01*
X156004Y-68405D02*
X157095Y-67315D01*
X158957Y-67520D02*
X159941D01*
X156004Y-70571D02*
Y-68405D01*
X154528Y-72047D02*
Y-63287D01*
X153839Y-72736D02*
X154528Y-72047D01*
X153937Y-62697D02*
X154528Y-63287D01*
X152657Y-62697D02*
X153937D01*
X153839Y-74803D02*
Y-72736D01*
X152337Y-67815D02*
X152657D01*
X150394Y-69758D02*
X152337Y-67815D01*
X150394Y-71949D02*
Y-69758D01*
X162205Y-97047D02*
Y-88878D01*
X158268Y-86417D02*
X159850Y-84835D01*
X156791Y-81791D02*
X157972Y-80610D01*
X156791Y-87205D02*
Y-81791D01*
X158268Y-108858D02*
Y-86417D01*
X160827Y-60827D02*
X160827Y-60827D01*
X162697D01*
X150000Y-55905D02*
X150295Y-55610D01*
X152461D01*
X147343Y-53642D02*
X149803D01*
X143209Y-70374D02*
X143529D01*
X143701Y-73032D02*
X145768Y-70965D01*
X142913Y-82579D02*
X143799Y-81693D01*
X142913Y-84646D02*
Y-82579D01*
X146358Y-81201D02*
X153839D01*
X143898Y-78740D02*
X146358Y-81201D01*
X143701Y-78740D02*
X143898D01*
X150212Y-102574D02*
Y-93519D01*
Y-102574D02*
X150295Y-102657D01*
X150197Y-93504D02*
X150212Y-93519D01*
X160236Y-109941D02*
Y-88878D01*
Y-109941D02*
X163878Y-113583D01*
X165945Y-76673D02*
X167126Y-77854D01*
X162402Y-76673D02*
X165945D01*
X159941Y-74902D02*
X160138Y-75098D01*
X159941Y-74902D02*
Y-73425D01*
X152854Y-86910D02*
X153740D01*
X152165Y-87598D02*
X152854Y-86910D01*
X152165Y-95325D02*
X152190Y-95349D01*
X152165Y-95325D02*
Y-93504D01*
X148827Y-88884D02*
X149510Y-89567D01*
X150197D01*
X153445Y-89075D02*
X154921D01*
X152953Y-89567D02*
X153445Y-89075D01*
X152165Y-89567D02*
X152953D01*
X154921Y-89075D02*
X156791Y-87205D01*
X152165Y-91535D02*
X154921D01*
X167520Y-125394D02*
Y-125157D01*
Y-127953D02*
Y-125394D01*
X144095Y-33563D02*
X146653Y-36122D01*
Y-41831D02*
Y-36122D01*
X148425Y-41240D02*
Y-30512D01*
X150000Y-40453D02*
X152362Y-42815D01*
X150000Y-40453D02*
Y-31201D01*
X109153Y-72244D02*
X110630Y-70768D01*
X106496Y-72244D02*
X109153D01*
X19685Y-39173D02*
X20472Y-39961D01*
X23031D01*
X23622Y-40551D01*
Y-42520D02*
Y-40551D01*
X114469Y-126083D02*
X114665D01*
X115059Y-130020D02*
Y-126476D01*
X108563Y-122047D02*
X110925D01*
X107480Y-120965D02*
X108563Y-122047D01*
X107480Y-120965D02*
Y-113779D01*
X165157Y-18110D02*
X166339Y-16929D01*
Y-8661D01*
X165453Y-7776D02*
X166339Y-8661D01*
X171555Y-7579D02*
X174508D01*
X170531Y-8602D02*
X171555Y-7579D01*
X180020Y-15846D02*
Y-7579D01*
Y-7283D01*
X144685Y-111752D02*
Y-108071D01*
X142913Y-106299D02*
X144685Y-108071D01*
X142913Y-106299D02*
Y-87795D01*
X172933Y-55512D02*
Y-55118D01*
Y-49409D01*
X158957Y-27067D02*
Y-19488D01*
X161122Y-56201D02*
Y-47047D01*
X162539Y-7776D02*
X165453D01*
X147343Y-24902D02*
X152953D01*
X82776Y-28051D02*
Y-26870D01*
X97146Y-76968D02*
X97638Y-77461D01*
X105512Y-73228D02*
X106496Y-72244D01*
X110630Y-70768D02*
Y-68110D01*
X100197Y-36319D02*
X102461Y-38583D01*
Y-42224D02*
Y-38583D01*
X95965Y-26476D02*
X96850Y-25591D01*
X92815Y-26476D02*
X95965D01*
X101378Y-12795D02*
X102362Y-13780D01*
X101378Y-12795D02*
Y-10433D01*
X96850Y-25591D02*
Y-15551D01*
X97441Y-14961D01*
X99114D01*
X84153Y-21752D02*
Y-19291D01*
Y-21752D02*
X84744Y-22343D01*
Y-23917D02*
Y-22343D01*
X81693Y-36220D02*
X82185Y-36713D01*
X81693Y-36220D02*
Y-32185D01*
X30118Y-46260D02*
X37795D01*
X29134Y-45276D02*
X30118Y-46260D01*
X26969Y-45276D02*
X29134D01*
X17520Y-43701D02*
Y-41339D01*
X19685Y-39173D01*
X16929Y-44291D02*
X17520Y-43701D01*
X20669Y-33071D02*
X21654Y-34055D01*
Y-37402D02*
Y-34055D01*
X20669Y-33071D02*
Y-30610D01*
X4921Y-42717D02*
X6496Y-44291D01*
X4921Y-42717D02*
Y-37598D01*
X6496Y-44291D02*
X16929D01*
X38386Y-49213D02*
Y-46850D01*
X37795Y-46260D02*
X38386Y-46850D01*
X38386Y-49213D02*
X38386Y-49213D01*
X15846Y-17224D02*
X16339Y-17717D01*
X15846Y-17224D02*
Y-15551D01*
X19685Y-39173D02*
Y-37402D01*
X19094Y-103937D02*
X28346D01*
X16929Y-106102D02*
X19094Y-103937D01*
X16929Y-112008D02*
Y-106102D01*
X15157Y-113779D02*
X16929Y-112008D01*
X12008Y-113779D02*
X15157D01*
X6890Y-113976D02*
X12008D01*
X6890Y-113976D02*
X6890Y-113976D01*
X10039Y-141732D02*
X10039Y-141732D01*
X3740Y-145669D02*
X3800Y-145609D01*
X42126Y-145669D02*
X42200Y-145595D01*
X37402Y-145669D02*
X37402Y-145669D01*
X42126D01*
X37402Y-153543D02*
X37402Y-153543D01*
X34252Y-149606D02*
X37402D01*
X42126D01*
X7283Y-118898D02*
X9252D01*
X5906Y-120276D02*
X7283Y-118898D01*
X5906Y-122441D02*
X9252D01*
X5906D02*
Y-120276D01*
Y-128347D02*
Y-122441D01*
X38681Y-121850D02*
X38780D01*
X40650D01*
X31299Y-95472D02*
Y-93307D01*
Y-95472D02*
X31890Y-96063D01*
X37598D01*
X33071Y-70866D02*
Y-67520D01*
X31693Y-13386D02*
X33858D01*
X15945Y-11417D02*
X18110D01*
X20669D01*
X20669Y-11417D01*
X97244Y-40846D02*
Y-39272D01*
X97638Y-79134D02*
X97638Y-79134D01*
X79331Y-125492D02*
Y-121850D01*
X103543Y-113779D02*
X103543Y-113779D01*
X99606Y-117421D02*
Y-113779D01*
X92913Y-117421D02*
X98622D01*
X105512Y-121752D02*
Y-113779D01*
Y-121752D02*
X107480Y-123721D01*
Y-125886D02*
Y-123721D01*
X103543Y-125886D02*
X107480D01*
X96161Y-125886D02*
Y-125197D01*
Y-129331D02*
Y-125886D01*
X87795Y-113779D02*
X87795Y-113779D01*
X85335Y-117421D02*
X87795D01*
X88779D01*
X32087Y-63189D02*
X34252D01*
X34744Y-63681D01*
X99606Y-125886D02*
Y-124311D01*
X98622Y-121358D02*
X98622Y-121358D01*
X99606Y-124311D02*
X100492Y-123425D01*
X103543Y-122441D02*
Y-113779D01*
X102559Y-123425D02*
X103543Y-122441D01*
X100492Y-123425D02*
X102559D01*
X81890Y-70965D02*
Y-54823D01*
Y-70965D02*
X85827Y-74902D01*
X89075Y-30217D02*
X92815Y-26476D01*
X34744Y-67618D02*
Y-63681D01*
Y-67618D02*
X35925Y-68799D01*
Y-73819D02*
Y-68799D01*
X98622Y-121358D02*
X101476D01*
X147933Y-74803D02*
Y-71260D01*
Y-74803D02*
X150689D01*
Y-77854D02*
Y-74803D01*
Y-77854D02*
X151575Y-78740D01*
X151575Y-78740D01*
X153839D01*
X143701Y-74803D02*
Y-73032D01*
X177362Y-103642D02*
X177362Y-103642D01*
X177362Y-113547D02*
Y-103642D01*
X172244D02*
X172244Y-103642D01*
X144587Y-19390D02*
X147343D01*
X144095Y-19882D02*
X144587Y-19390D01*
X144095Y-33563D02*
Y-19882D01*
X153898Y-15256D02*
X156595D01*
X157382Y-16043D01*
Y-25984D02*
Y-16043D01*
X155709Y-27657D02*
X157382Y-25984D01*
X156791Y-29232D02*
X158957Y-27067D01*
X151969Y-29232D02*
X156791D01*
X150000Y-31201D02*
X151969Y-29232D01*
X151279Y-27657D02*
X155709D01*
X148425Y-30512D02*
X151279Y-27657D01*
X146653Y-41831D02*
X151378Y-46555D01*
X158957Y-19488D02*
X160335Y-18110D01*
X165157D01*
X163976Y-20276D02*
X164665Y-19587D01*
X169587D02*
X170531Y-18642D01*
X164665Y-19587D02*
X169587D01*
X166240Y-30610D02*
X166831Y-31201D01*
Y-33760D02*
Y-31201D01*
X163976Y-29921D02*
Y-20276D01*
Y-29921D02*
X164665Y-30610D01*
X166240D01*
X168307Y-96358D02*
Y-92618D01*
X167126Y-97539D02*
X168307Y-96358D01*
X152362Y-42815D02*
X156890D01*
X161122Y-47047D01*
X156004Y-44390D02*
X159646Y-48031D01*
X151378Y-46555D02*
X154429D01*
X148425Y-41240D02*
X151575Y-44390D01*
X156004D01*
X177362Y-85827D02*
Y-81595D01*
X172244Y-85433D02*
Y-81595D01*
X171949Y-85728D02*
X172244Y-85433D01*
X169980Y-85728D02*
X171949D01*
X169685Y-85433D02*
X169980Y-85728D01*
X169685Y-85433D02*
Y-81595D01*
X169685Y-81595D01*
X179921Y-88878D02*
Y-81595D01*
X168504Y-87303D02*
X175886D01*
X177362Y-85827D01*
X174606Y-90551D02*
X177362Y-93307D01*
X31693Y-15354D02*
X31693Y-15354D01*
X31693Y-17323D02*
Y-15354D01*
X167520Y-86319D02*
X168504Y-87303D01*
X164567Y-86319D02*
Y-81595D01*
Y-86811D02*
Y-86319D01*
X164567D02*
X164567D01*
X167520D01*
X165256Y-90551D02*
X174606D01*
X164567Y-91240D02*
X165256Y-90551D01*
X164567Y-92618D02*
Y-91240D01*
X170472Y-113583D02*
X171260Y-114370D01*
Y-117165D02*
Y-114370D01*
X163878Y-113583D02*
X170472D01*
X174803Y-119291D02*
Y-103642D01*
X172933Y-121161D02*
X174803Y-119291D01*
X178347Y-128937D02*
Y-124508D01*
X168504Y-128937D02*
X172835D01*
X167520Y-127953D02*
X168504Y-128937D01*
X157579Y-121161D02*
X172933D01*
X152854D02*
X157579D01*
X151437Y-119744D02*
X152854Y-121161D01*
X148425Y-119744D02*
X151437D01*
X152165Y-111752D02*
X155374D01*
X153839Y-81201D02*
Y-78740D01*
Y-83563D02*
Y-81201D01*
X21654Y-7087D02*
X22441Y-6299D01*
X150197Y-87598D02*
Y-84646D01*
X147047D02*
X150197D01*
X144882Y-92421D02*
Y-90158D01*
X158957Y-71457D02*
X159941D01*
X159646Y-57087D02*
Y-48031D01*
Y-57087D02*
X161516Y-58957D01*
X163976D01*
X164665Y-59646D01*
Y-60827D02*
Y-59646D01*
X168602Y-62795D02*
X170669D01*
X172146Y-64272D01*
X161122Y-56201D02*
X161909Y-56988D01*
X165354D01*
X166634Y-58268D01*
X161909Y-69488D02*
X164567D01*
X155374Y-111752D02*
X158268Y-108858D01*
Y-72146D02*
X158957Y-71457D01*
X162205Y-88878D02*
X179921D01*
X38386Y-57874D02*
Y-54626D01*
X38386Y-54626D01*
X35827Y-60335D02*
Y-57874D01*
X29528Y-19685D02*
X31693Y-17520D01*
X35827Y-60335D02*
X36713Y-61221D01*
X38386D01*
X40650Y-121850D02*
Y-118209D01*
X40157Y-117717D02*
X40650Y-118209D01*
X38780Y-117717D02*
X40157D01*
X96161Y-125886D02*
X99606D01*
X79134Y-49508D02*
X79134Y-49508D01*
Y-53642D02*
Y-49508D01*
X89764Y-47933D02*
Y-43110D01*
X91626Y-41248D01*
X95169D01*
X95276Y-41142D01*
Y-41240D02*
X96850D01*
X97244Y-40846D01*
X95276Y-41240D02*
Y-41142D01*
Y-39272D01*
X97244Y-36319D02*
X100197D01*
X82185Y-36713D02*
X87402D01*
X89075Y-35039D01*
Y-30217D01*
X107480Y-32087D02*
X110138Y-29429D01*
Y-24902D01*
X84252Y-43307D02*
X91240Y-36319D01*
X93307D01*
X147933Y-68209D02*
Y-65650D01*
X145768Y-70965D02*
Y-70374D01*
X147933Y-68209D01*
X143529Y-70374D02*
X145600Y-68303D01*
Y-67800D01*
D48*
X16732Y-129528D02*
X20276D01*
X25787Y-129134D02*
X26181Y-129528D01*
X20276D02*
Y-129134D01*
X13100Y-129528D02*
X16732D01*
X29400D02*
X32480D01*
X33661Y-128347D01*
X26181Y-129528D02*
X29400D01*
D49*
X114370Y-70866D02*
Y-68110D01*
X84252Y-32185D02*
Y-30709D01*
X22915Y-106415D02*
X23031Y-106299D01*
X83858Y-30315D02*
X84252Y-30709D01*
X102362Y-13780D02*
X103051Y-14469D01*
Y-14961D02*
Y-14469D01*
X22244Y-106299D02*
X23031D01*
X32677Y-67126D02*
X33071Y-67520D01*
X32087Y-67126D02*
X32677D01*
X176083Y-59547D02*
Y-59153D01*
X175492Y-58563D02*
X176083Y-59153D01*
X168898Y-58563D02*
X175492D01*
X166634Y-60827D02*
X168898Y-58563D01*
X157874Y-69095D02*
X158268Y-69488D01*
X159941D01*
X162803Y-74319D02*
X163949D01*
X161909Y-73425D02*
X162803Y-74319D01*
X168996Y-60433D02*
X170641D01*
X168602Y-60827D02*
X168996Y-60433D01*
X148432Y-94985D02*
Y-92414D01*
X149311Y-91535D01*
X150197D01*
X163189Y-65256D02*
X164665Y-63779D01*
Y-62795D01*
X175394Y-73327D02*
X176181Y-72539D01*
Y-71063D01*
X161909Y-71457D02*
X162598Y-72146D01*
X163976D01*
X165256D01*
X166437Y-73327D01*
X175394D01*
D50*
X113976Y-7480D02*
X115157Y-8661D01*
X26969Y-108071D02*
X32283D01*
Y-103937D01*
X27756Y-71063D02*
Y-66142D01*
X26772Y-65158D02*
X27756Y-66142D01*
X115157Y-9154D02*
Y-8661D01*
X112205Y-7480D02*
X113976D01*
X33268Y-103937D02*
X37795D01*
X32283D02*
X33268D01*
X32283Y-109449D02*
Y-108071D01*
X5118Y-141732D02*
X10039D01*
X3800Y-145609D02*
Y-141191D01*
X42200Y-145595D02*
Y-141191D01*
X37402Y-153543D02*
X40945D01*
X34252Y-117717D02*
Y-115354D01*
X33268Y-114370D02*
X34252Y-115354D01*
X26969Y-114370D02*
Y-112008D01*
X23425Y-114370D02*
X26969D01*
X33268D01*
X33071Y-98622D02*
X33268Y-98425D01*
X29331Y-98622D02*
X33071D01*
X24016Y-71063D02*
X27756D01*
X10039Y-153543D02*
X10039Y-153543D01*
X5118Y-153543D02*
X10039D01*
X166240Y-26476D02*
Y-22343D01*
X84350Y-125787D02*
Y-123130D01*
D51*
X12992Y-129420D02*
X13100Y-129528D01*
X12992Y-129420D02*
Y-128347D01*
X16600Y-141191D02*
X29400D01*
X16600Y-154391D02*
X29400D01*
X16609Y41948D02*
X29409D01*
X16609Y28748D02*
X29409D01*
X22244Y-120866D02*
Y-113779D01*
X22244Y-113779D01*
D52*
X18898D02*
X22244D01*
X13780Y-118898D02*
X16535D01*
X17717Y-114961D02*
X18898Y-113779D01*
X17717Y-117717D02*
Y-114961D01*
X16535Y-118898D02*
X17717Y-117717D01*
D53*
X10433Y-240262D02*
X14432D01*
X12432D01*
Y-246260D01*
X17431D02*
X19430D01*
X20430Y-245260D01*
Y-243261D01*
X19430Y-242261D01*
X17431D01*
X16431Y-243261D01*
Y-245260D01*
X17431Y-246260D01*
X22429Y-248259D02*
Y-242261D01*
X25428D01*
X26428Y-243261D01*
Y-245260D01*
X25428Y-246260D01*
X22429D01*
X34425Y-240262D02*
Y-246260D01*
X38424D01*
X41423Y-242261D02*
X43422D01*
X44422Y-243261D01*
Y-246260D01*
X41423D01*
X40423Y-245260D01*
X41423Y-244261D01*
X44422D01*
X46421Y-242261D02*
Y-245260D01*
X47421Y-246260D01*
X50420D01*
Y-247259D01*
X49420Y-248259D01*
X48421D01*
X50420Y-246260D02*
Y-242261D01*
X55418Y-246260D02*
X53419D01*
X52420Y-245260D01*
Y-243261D01*
X53419Y-242261D01*
X55418D01*
X56418Y-243261D01*
Y-244261D01*
X52420D01*
X58418Y-242261D02*
Y-246260D01*
Y-244261D01*
X59417Y-243261D01*
X60417Y-242261D01*
X61417D01*
D54*
X-194132Y-216161D02*
X317679D01*
Y79114D01*
X-194132Y-216161D02*
Y79114D01*
X317679D01*
D55*
X-33131Y-1969D02*
G03*
X-32344Y-1181I0J787D01*
G01*
X-71714D02*
G03*
X-70927Y-1969I787J0D01*
G01*
X-145017Y0D02*
G03*
X-146517Y-1500I0J-1500D01*
G01*
Y-133500D02*
G03*
X-145017Y-135000I1500J0D01*
G01*
X4000Y-134500D02*
G03*
X0Y-134500I-2000J0D01*
G01*
X2000Y-138406D02*
G03*
X4000Y-136406I0J2000D01*
G01*
X2000Y-138406D02*
G03*
X500Y-139906I0J-1500D01*
G01*
Y-156591D02*
G03*
X2000Y-158091I1500J0D01*
G01*
X44000D02*
G03*
X45500Y-156591I0J1500D01*
G01*
Y-139906D02*
G03*
X44000Y-138406I-1500J0D01*
G01*
X42000Y-136406D02*
G03*
X44000Y-138406I2000J0D01*
G01*
Y-132500D02*
G03*
X42000Y-134500I0J-2000D01*
G01*
X42000Y-2547D02*
G03*
X44000Y-4547I2000J-0D01*
G01*
X42745Y25963D02*
G03*
X42007Y25177I50J-786D01*
G01*
X44013Y25963D02*
G03*
X45509Y27459I0J1496D01*
G01*
Y44148D02*
G03*
X44009Y45648I-1500J0D01*
G01*
X2000Y45650D02*
G03*
X500Y44150I0J-1500D01*
G01*
X509Y27459D02*
G03*
X2005Y25963I1496J0D01*
G01*
X4007Y25177D02*
G03*
X3269Y25963I-787J0D01*
G01*
X0Y-2547D02*
G03*
X4000Y-2547I2000J0D01*
G01*
X42007D02*
Y25177D01*
X45500Y-156591D02*
Y-139906D01*
X-32344Y-1181D02*
Y0D01*
X-70927Y-1969D02*
X-33131D01*
X-71714Y-1181D02*
Y0D01*
X-145017D02*
X-71714D01*
X-146517Y-133500D02*
Y-1500D01*
X-145017Y-135000D02*
X0D01*
Y-134500D01*
X4000Y-136406D02*
Y-134500D01*
X500Y-156591D02*
Y-139906D01*
X2000Y-158091D02*
X44000D01*
X42000Y-136406D02*
Y-134500D01*
X44000Y-132500D02*
X270064D01*
Y-4547D01*
X44000D02*
X270064D01*
X42745Y25963D02*
X44013D01*
X45509Y27459D02*
Y44148D01*
X44000Y45650D02*
X44009Y45648D01*
X2000Y45650D02*
X44000D01*
X500Y27459D02*
Y44150D01*
X2005Y25963D02*
X3269D01*
X4000Y-2547D02*
X4007Y25177D01*
X0Y-2547D02*
Y0D01*
X-32344D02*
X0D01*
D56*
X-157675Y51555D02*
G03*
X-157675Y51555I-8898J0D01*
G01*
X299018D02*
G03*
X299018Y51555I-8898J0D01*
G01*
Y-188602D02*
G03*
X299018Y-188602I-8898J0D01*
G01*
X-157675D02*
G03*
X-157675Y-188602I-8898J0D01*
G01*
D57*
X260904Y-128547D02*
D03*
X260904Y-8547D02*
D03*
X250904D02*
D03*
X260904Y-78547D02*
D03*
X250904Y-28547D02*
D03*
X260904D02*
D03*
Y-48547D02*
D03*
X250904Y-38547D02*
D03*
X260904D02*
D03*
X250904Y-48547D02*
D03*
X260904Y-58547D02*
D03*
X250904D02*
D03*
X260904Y-98547D02*
D03*
X250904D02*
D03*
X260904Y-88547D02*
D03*
X250904Y-118547D02*
D03*
Y-108547D02*
D03*
Y-88547D02*
D03*
X260904Y-68547D02*
D03*
X250904D02*
D03*
Y-78547D02*
D03*
X260904Y-18547D02*
D03*
X250904D02*
D03*
X260904Y-118547D02*
D03*
X250904Y-128547D02*
D03*
X260904Y-108547D02*
D03*
D58*
X3800Y-154391D02*
D03*
Y-141191D02*
D03*
X42200D02*
D03*
X42200Y-154391D02*
D03*
X16600D02*
D03*
X29400D02*
D03*
X23000Y-147791D02*
D03*
X29400Y-141191D02*
D03*
X16600D02*
D03*
X23007Y35350D02*
D03*
X3809Y28748D02*
D03*
Y41948D02*
D03*
X16609Y41948D02*
D03*
Y28748D02*
D03*
X29409D02*
D03*
X42209D02*
D03*
Y41948D02*
D03*
X29409D02*
D03*
D59*
X-166573Y51555D02*
D03*
X290120D02*
D03*
Y-188602D02*
D03*
X-166573D02*
D03*
D60*
X102461Y-29134D02*
D03*
X149902Y-53543D02*
D03*
X179429Y-26083D02*
D03*
X114173Y-7480D02*
D03*
X78839Y-60138D02*
D03*
X95276Y-34055D02*
D03*
X179232Y-55512D02*
D03*
X150394Y-71949D02*
D03*
X113976Y-47244D02*
D03*
X143898D02*
D03*
X162402Y-76673D02*
D03*
X150295Y-102657D02*
D03*
X143799Y-81693D02*
D03*
X147933Y-65650D02*
D03*
X114469Y-40453D02*
D03*
X93405Y-55709D02*
D03*
X93307Y-43898D02*
D03*
X89764Y-47933D02*
D03*
X106201Y-54331D02*
D03*
X86811Y-49508D02*
D03*
X103445Y-75098D02*
D03*
X91437Y-39272D02*
D03*
X83858Y-75984D02*
D03*
X101476Y-121358D02*
D03*
X147146Y-50492D02*
D03*
X150689Y-74803D02*
D03*
X172933Y-32087D02*
D03*
X166240Y-26476D02*
D03*
X161221Y-29862D02*
D03*
X153150Y-33957D02*
D03*
X161417Y-42323D02*
D03*
X177362Y-113547D02*
D03*
X153150Y-40157D02*
D03*
X166831Y-33760D02*
D03*
X168307Y-92618D02*
D03*
X154429Y-46555D02*
D03*
X147736Y-46358D02*
D03*
X152992Y-117165D02*
D03*
X144882Y-90158D02*
D03*
X84350Y-125787D02*
D03*
X79134Y-53642D02*
D03*
X172736Y-26673D02*
D03*
X145600Y-67800D02*
D03*
X88800Y-108700D02*
D03*
X101600Y-84800D02*
D03*
X114567Y-118209D02*
D03*
X83957Y-84350D02*
D03*
X79232Y-27362D02*
D03*
X157185Y-59646D02*
D03*
X8661Y-71260D02*
D03*
X15551Y-73032D02*
D03*
X12992Y-21161D02*
D03*
X14173Y-9055D02*
D03*
X40650Y-19094D02*
D03*
X40650Y-22736D02*
D03*
X109843Y-96457D02*
D03*
X95669Y-107087D02*
D03*
X101969D02*
D03*
X105512Y-109449D02*
D03*
Y-105118D02*
D03*
Y-101181D02*
D03*
X100787D02*
D03*
X96850D02*
D03*
X92913D02*
D03*
X100787Y-96457D02*
D03*
X92913D02*
D03*
X100787Y-89370D02*
D03*
X96850D02*
D03*
X92913D02*
D03*
X96850Y-84744D02*
D03*
X92913D02*
D03*
X83858Y-92618D02*
D03*
Y-97146D02*
D03*
Y-101969D02*
D03*
X40157Y-52756D02*
D03*
X111122Y-129626D02*
D03*
X107480D02*
D03*
X103543D02*
D03*
X30512Y-22736D02*
D03*
X21752Y-45079D02*
D03*
X172146Y-71063D02*
D03*
X153839Y-72736D02*
D03*
X162205Y-97047D02*
D03*
X174311Y-75984D02*
D03*
X170374D02*
D03*
X157776Y-63583D02*
D03*
X170641Y-60433D02*
D03*
X145283Y-97052D02*
D03*
X145965Y-100492D02*
D03*
X152190Y-95349D02*
D03*
X154232Y-106988D02*
D03*
X166142Y-109941D02*
D03*
X167520Y-125394D02*
D03*
X107677Y-75098D02*
D03*
X111614D02*
D03*
X114370Y-70866D02*
D03*
X114469Y-126083D02*
D03*
X30512Y-27067D02*
D03*
X152953Y-19390D02*
D03*
X174508Y-15846D02*
D03*
X84350Y-117618D02*
D03*
X81890Y-54823D02*
D03*
X38386Y-54626D02*
D03*
X94488Y-23228D02*
D03*
X99114Y-18898D02*
D03*
X94488Y-10433D02*
D03*
X104823Y-11220D02*
D03*
X112205D02*
D03*
X90551Y-18898D02*
D03*
X86713Y-9449D02*
D03*
X79035D02*
D03*
X17126Y-29724D02*
D03*
X37402Y-26969D02*
D03*
X14173Y-41535D02*
D03*
X23228Y-100000D02*
D03*
X37795Y-103937D02*
D03*
X12008Y-110039D02*
D03*
X6890D02*
D03*
X28346Y-103937D02*
D03*
X39370Y-109449D02*
D03*
X29400Y-129528D02*
D03*
X16732D02*
D03*
X32087Y36024D02*
D03*
X29331Y-145669D02*
D03*
X34252Y-149606D02*
D03*
X26575Y37402D02*
D03*
X33465Y33465D02*
D03*
X13780Y-122441D02*
D03*
X34252Y-121850D02*
D03*
X29331Y-120866D02*
D03*
X28740Y-100000D02*
D03*
X27756Y-76575D02*
D03*
X19882Y-48622D02*
D03*
X6299Y-55512D02*
D03*
X37008Y-65748D02*
D03*
X35827Y-49213D02*
D03*
X18110Y-11417D02*
D03*
X37402Y-18996D02*
D03*
X17126Y-33661D02*
D03*
X30906Y-149606D02*
D03*
X92618Y-75098D02*
D03*
X79331Y-117913D02*
D03*
Y-129429D02*
D03*
X111122Y-126083D02*
D03*
X32776Y-71063D02*
D03*
X35925Y-73819D02*
D03*
X96653Y-96457D02*
D03*
X86811Y-30020D02*
D03*
X34547Y-79331D02*
D03*
X150000Y-55905D02*
D03*
X147933Y-78740D02*
D03*
X31693Y-17520D02*
D03*
X164567Y-92618D02*
D03*
X178347Y-118996D02*
D03*
X147343Y-126673D02*
D03*
X145965Y-104429D02*
D03*
X168012Y-71063D02*
D03*
X9252Y-23031D02*
D03*
X34449Y-22736D02*
D03*
X23819Y-15256D02*
D03*
X28445D02*
D03*
X23819Y-8858D02*
D03*
X28445D02*
D03*
X26181Y-12402D02*
D03*
X38386Y-61221D02*
D03*
X92224Y-125197D02*
D03*
X99606Y-129626D02*
D03*
X88779Y-123524D02*
D03*
X92224Y-129331D02*
D03*
X30512Y-42717D02*
D03*
X31299Y-57087D02*
D03*
X12795Y-26100D02*
D03*
X110800Y-118200D02*
D03*
D61*
X24803Y-27657D02*
D03*
X22638Y-26476D02*
D03*
X19488Y-42520D02*
D03*
X23819Y-37402D02*
D03*
X20472Y-27657D02*
D03*
X86910Y-23917D02*
D03*
X82579D02*
D03*
X79331Y-91535D02*
D03*
Y-87598D02*
D03*
X169685Y-64665D02*
D03*
X175591Y-63583D02*
D03*
X161327Y-63980D02*
D03*
X157874Y-69095D02*
D03*
X174803Y-81595D02*
D03*
X176083Y-59547D02*
D03*
X157972Y-80610D02*
D03*
X148432Y-94985D02*
D03*
X163949Y-74319D02*
D03*
X155610Y-91437D02*
D03*
X153740Y-86910D02*
D03*
X147047Y-84646D02*
D03*
X148827Y-88884D02*
D03*
X112883Y-85619D02*
D03*
X112801Y-89571D02*
D03*
X113976Y-87598D02*
D03*
Y-91535D02*
D03*
X114080Y-83666D02*
D03*
X112894Y-81693D02*
D03*
X111417Y-79134D02*
D03*
X112801Y-105320D02*
D03*
X113976Y-103347D02*
D03*
Y-107283D02*
D03*
X112894Y-109252D02*
D03*
X160138Y-75098D02*
D03*
X160827Y-60827D02*
D03*
X178051Y-49409D02*
D03*
X175492D02*
D03*
X172933D02*
D03*
X170374D02*
D03*
X85827Y-113779D02*
D03*
X81890D02*
D03*
X91732Y-80216D02*
D03*
X93701Y-79134D02*
D03*
X95669Y-80216D02*
D03*
X103543Y-79134D02*
D03*
X79331Y-95472D02*
D03*
X79035Y-19291D02*
D03*
X40650Y-99016D02*
D03*
X30315Y-87795D02*
D03*
X34252Y-85236D02*
D03*
X26378D02*
D03*
X34252Y-90354D02*
D03*
X26378D02*
D03*
X79331Y-101378D02*
D03*
X101575Y-113779D02*
D03*
X91732D02*
D03*
X93701Y-112697D02*
D03*
X95669Y-113779D02*
D03*
X97638Y-112697D02*
D03*
X80413Y-89567D02*
D03*
Y-111221D02*
D03*
X110630Y-68110D02*
D03*
X83858Y-112697D02*
D03*
X172244Y-81595D02*
D03*
X164567Y-86319D02*
D03*
X166634Y-58268D02*
D03*
X163189Y-65256D02*
D03*
X164567Y-69488D02*
D03*
X160236Y-88878D02*
D03*
X163976Y-72146D02*
D03*
M02*
