M48
;Layer_Color=9474304
;FILE_FORMAT=2:5
INCH,LZ
;TYPE=PLATED
T2F00S00C0.00787
;TYPE=NON_PLATED
%
T02
X008435Y-0120079
X0079331Y-0097441
X0081299Y-0093504
X0082776Y-0089567
X0081398Y-0081102
X0083858Y-0073425
Y-0070965
X0084153Y-0054823
X0079035Y-002126
X0079035Y-0016732
X004065
X0040846Y-0007677
X0034252Y-0010236
Y-0012598
X0025689Y-0023031
X0028445Y-0031988
X0040551Y-0026969
X0034057Y-0046557
X0031299Y-0049213
Y-0051968
Y-0054528
X001565Y-000748
X0088386Y-0070768
X0091831Y-0072736
X0095571Y-0077264
X0098032Y-0080216
X0091732Y-008248
X0110531Y-0081693
X011437Y-0079331
X0114173Y-0075394
X01125Y-006811
X0110236Y-0087598
Y-0090453
X0108169Y-009252
X0113785Y-009469
X0113976Y-0100886
X0111516Y-0103347
X0113878Y-0111516
X0105217Y-0114764
X0101575Y-0111516
X0097638Y-0110138
X0093701
X0091732Y-0108219
X0099508Y-0103937
X0095571Y-0120472
X01108Y-01222
X0147343Y-0123547
X0178347Y-0128543
X0170374Y-0101476
X0166142Y-0095276
X0152165Y-0092126
X0150197Y-0083858
X0147047Y-0082382
X015561Y-0084547
X0153839Y-0070669
X0154921Y-0061516
X0159744Y-0057776
X0172933Y-0056299
Y-0051575
X017313Y-0062795
X0176181Y-0071063
X0178051Y-0075886
X0174508Y-00131
X0152953Y-0011713
M30
