M48
;Layer_Color=9474304
;FILE_FORMAT=2:5
INCH,LZ
;TYPE=PLATED
T2F00S00C0.00787
T3F00S00C0.02000
T4F00S00C0.03600
;TYPE=NON_PLATED
T5F00S00C0.15799
%
T02
X0030906Y-0149606
X0034252
X0029331Y-0145669
X00294Y-0129528
X0029331Y-0120866
X0034252Y-012185
X001378Y-0122441
X0016732Y-0129528
X0012008Y-0110039
X000689
X0028346Y-0103937
X0037795
X0035925Y-0073819
X0032776Y-0071063
X0037008Y-0065748
X0038386Y-0061221
Y-0054626
X0040157Y-0052756
X0035827Y-0049213
X0031299Y-0057087
X0019882Y-0048622
X0014173Y-0041535
X0012795Y-00261
X0009252Y-0023031
X0028445Y-0015256
X0006299Y-0055512
X0008661Y-007126
X0015551Y-0073032
X0083858Y-0075984
X0078839Y-0060138
X0079134Y-0053642
X008435Y-0125787
X0101476Y-0121358
X0103445Y-0075098
X0106201Y-0054331
X0093405Y-0055709
X0089764Y-0047933
X0086811Y-0049508
X0093307Y-0043898
X0091437Y-0039272
X0095276Y-0034055
X0102461Y-0029134
X0114469Y-0040453
X0113976Y-0047244
X0143898
X0147736Y-0046358
X0147146Y-0050492
X0149902Y-0053543
X0154429Y-0046555
X015315Y-0040157
Y-0033957
X0161221Y-0029862
X016624Y-0026476
X0172736Y-0026673
X0172933Y-0032087
X0166831Y-003376
X0161417Y-0042323
X0179232Y-0055512
X0179429Y-0026083
X0162402Y-0076673
X0150689Y-0074803
X0150394Y-0071949
X0147933Y-006565
X01456Y-00678
X0143799Y-0081693
X0144882Y-0090158
X0150295Y-0102657
X0152992Y-0117165
X0177362Y-0113547
X0168307Y-0092618
X0114173Y-000748
X0033465Y0033465
X0032087Y0036024
X0026575Y0037402
T03
X00038Y-0154391
X00166
X00294
X00422
X00422Y-0141191
X00294
X00166
X00038
X0023Y-0147791
X0016609Y0028748
X0029409
X0042209
Y0041948
X0029409
X0016609
X0003809Y0041948
Y0028748
X0023007Y003535
T04
X0250904Y-0128547
X0260904
Y-0118547
X0250904
Y-0108547
Y-0098547
X0260904
Y-0088547
Y-0078547
Y-0068547
Y-0058547
Y-0048547
Y-0038547
Y-0028547
X0250904
Y-0038547
Y-0048547
Y-0058547
Y-0068547
Y-0078547
Y-0088547
X0260904Y-0108547
X0260904Y-0018547
Y-0008547
X0250904
Y-0018547
T05
X029012Y-0188602
X-0166573
X029012Y0051555
X-0166573
M30
