M48
;Layer_Color=9474304
;FILE_FORMAT=2:5
INCH,LZ
;TYPE=PLATED
T1F00S00C0.00591
;TYPE=NON_PLATED
%
T01
X0023228Y-01
X002874
X0026378Y-0090354
Y-0085236
X0030315Y-0087795
X0034252Y-0090354
Y-0085236
X0034547Y-0079331
X0027756Y-0076575
X004065Y-0099016
X003937Y-0109449
X0080413Y-0111221
X008189Y-0113779
X0083858Y-0112697
X008435Y-0117618
X0079331Y-0117913
Y-0129429
X0079331Y-0101378
X0083858Y-0101969
Y-0097146
Y-0092618
X0079331Y-0091535
X0080413Y-0089567
X0079331Y-0087598
X0083957Y-008435
X0079331Y-0095472
X008189Y-0054823
X0079232Y-0027362
X0082579Y-0023917
X0079035Y-0019291
Y-0009449
X004065Y-0019094
X0037402Y-0018996
X0034449Y-0022736
X0030512
Y-0027067
X0024803Y-0027657
X0022638Y-0026476
X0020472Y-0027657
X0017126Y-0029724
Y-0033661
X0023819Y-0037402
X0019488Y-004252
X0021752Y-0045079
X0030512Y-0042717
X0037402Y-0026969
X004065Y-0022736
X0031693Y-001752
X0023819Y-0015256
X0026181Y-0012402
X0028445Y-0008858
X0023819
X001811Y-0011417
X0014173Y-0009055
X0012992Y-0021161
X008691Y-0023917
X0086811Y-003002
X0094488Y-0023228
X0090551Y-0018898
X0099114
X0094488Y-0010433
X0086713Y-0009449
X0104823Y-001122
X0112205
X0152953Y-001939
X0174508Y-0015846
X0175492Y-0049409
X0172933
X0170374
X0178051
X0176083Y-0059547
X0175591Y-0063583
X0169685Y-0064665
X0170641Y-0060433
X0166634Y-0058268
X0160827Y-0060827
X0161327Y-006398
X0163189Y-0065256
X0164567Y-0069488
X0163976Y-0072146
X0163949Y-0074319
X0160138Y-0075098
X0157972Y-008061
X015374Y-008691
X015561Y-0091437
X0160236Y-0088878
X0164567Y-0086319
X0164567Y-0092618
X0162205Y-0097047
X015219Y-0095349
X0148432Y-0094985
X0145283Y-0097052
X0145965Y-0100492
Y-0104429
X0154232Y-0106988
X0166142Y-0109941
X016752Y-0125394
X0178347Y-0118996
X0147343Y-0126673
X0114469Y-0126083
X0111122Y-0126083
Y-0129626
X010748
X0103543
X0099606
X0092224Y-0129331
X0092224Y-0125197
X0088779Y-0123524
X0091732Y-0113779
X0093701Y-0112697
X0095669Y-0113779
X0097638Y-0112697
X0101575Y-0113779
X0101969Y-0107087
X0105512Y-0105118
Y-0101181
X0100787
X009685
X0092913
Y-0096457
X0096653
X0100787
Y-008937
X009685
X0092913
Y-0084744
X009685
X01016Y-00848
X0103543Y-0079134
X0111417
X0112894Y-0081693
X011408Y-0083666
X0112883Y-0085619
X0113976Y-0087598
X0112801Y-0089571
X0113976Y-0091535
X0109843Y-0096457
X0113976Y-0103347
X0112801Y-010532
X0113976Y-0107283
X0112894Y-0109252
X0105512Y-0109449
X0095669Y-0107087
X00888Y-01087
X0085827Y-0113779
X01108Y-01182
X0114567Y-0118209
X0111614Y-0075098
X0107677
X011063Y-006811
X011437Y-0070866
X0092618Y-0075098
X0093701Y-0079134
X0091732Y-0080216
X0095669
X0147933Y-007874
X0147047Y-0084646
X0148827Y-0088884
X0153839Y-0072736
X0157874Y-0069095
X0157776Y-0063583
X0157185Y-0059646
X015Y-0055905
X0168012Y-0071063
X0172146
X0170374Y-0075984
X0174311
X0174803Y-0081595
X0172244
M30
